<!-- Generated by IcoMoon.io -->
<svg version="1.1" xmlns="http://www.w3.org/2000/svg"  viewBox="0 0 1024 1024">
<title></title>
<g id="insta">
</g>
<path stroke-linejoin="miter" stroke-linecap="butt" stroke-miterlimit="4" stroke-width="18.963" stroke="#000" fill="#000" d="M512 123.634c125.884 0 141.953 0 191.503 2.679 45.534 2.678 70.978 9.375 88.386 16.070 21.428 8.035 37.497 18.749 54.909 34.819 17.408 16.070 26.783 32.141 34.82 54.908 6.694 16.070 14.73 41.514 16.069 88.386 2.678 49.55 2.678 64.282 2.678 191.505 0 125.884 0 141.953-2.678 191.503-2.678 45.534-9.375 70.978-16.069 88.386-8.037 22.767-18.751 37.497-34.82 54.909-16.069 16.069-32.142 26.783-54.909 34.82-16.069 6.694-41.514 14.73-88.386 16.069-49.55 2.678-64.281 2.678-191.503 2.678-125.884 0-141.955 0-191.505-2.678-45.533-2.678-70.977-9.375-88.386-16.069-21.427-8.037-37.498-18.751-54.907-34.82-16.070-16.073-26.784-32.142-34.819-54.909-6.696-16.069-14.731-41.514-16.070-88.386-2.678-49.55-2.678-64.281-2.678-191.503 0-125.884 0-141.955 2.678-191.505 2.678-45.533 9.375-70.977 16.070-88.386 8.035-21.427 18.749-37.498 34.819-54.908s32.141-26.783 54.907-34.819c16.070-6.696 41.514-14.731 88.386-16.070 49.55-1.339 64.282-2.679 191.505-2.679zM512 37.926c-128.561 0-144.633 0-195.522 2.679s-84.369 10.713-115.171 21.427c-30.801 12.053-57.585 28.123-84.369 54.907s-42.854 52.229-54.907 84.37c-12.053 29.462-20.088 64.281-21.427 115.17-2.679 50.889-2.678 66.961-2.678 195.522s0 144.634 2.678 195.523c2.678 50.889 10.713 84.366 21.427 115.17 12.053 30.8 28.123 57.583 54.907 84.37 26.784 26.783 52.229 42.853 84.369 54.905 29.462 12.053 64.281 20.089 115.171 21.428 50.889 2.678 66.961 2.678 195.522 2.678s144.634 0 195.523-2.678c50.889-2.678 84.366-10.714 115.17-21.428 30.8-12.053 57.587-28.122 84.37-54.905 26.783-26.787 42.853-52.232 54.905-84.37 12.053-29.465 20.089-64.281 21.428-115.17 2.678-50.889 2.678-66.962 2.678-195.523s0-144.633-2.678-195.522c-2.678-50.889-10.714-84.369-21.428-115.17-12.053-30.801-28.122-57.586-54.905-84.37s-52.232-42.854-84.37-54.907c-29.465-12.053-64.281-20.087-115.17-21.427s-66.962-2.679-195.523-2.679z"></path>
<path stroke-linejoin="miter" stroke-linecap="butt" stroke-miterlimit="4" stroke-width="18.963" stroke="#000" fill="#000" d="M512 268.259c-133.918 0-243.731 108.474-243.731 243.733 0 133.92 108.475 243.731 243.731 243.731 133.92 0 243.735-108.472 243.735-243.731-1.339-133.92-109.815-243.733-243.735-243.733zM512 670.018c-87.048 0-158.023-70.978-158.023-158.026s70.976-158.025 158.023-158.025c87.048 0 158.026 70.978 158.026 158.025s-70.978 158.026-158.026 158.026z"></path>
<path stroke-linejoin="miter" stroke-linecap="butt" stroke-miterlimit="4" stroke-width="18.963" stroke="#000" fill="#000" d="M821.35 258.895c0 30.801-25.445 56.246-56.248 56.246-30.8 0-56.244-25.445-56.244-56.246s25.445-56.246 56.244-56.246c30.803 0 56.248 25.445 56.248 56.246z"></path>
</svg>
