<?xml version="1.0" encoding="UTF-8"?>
<svg xmlns="http://www.w3.org/2000/svg" xmlns:xlink="http://www.w3.org/1999/xlink" width="35pt" height="35pt" viewBox="0 0 35 35" version="1.1">
<g id="surface1">
<path style=" stroke:none;fill-rule:nonzero;fill:rgb(0%,0%,0%);fill-opacity:1;" d="M 17.5 4.226562 C 21.800781 4.226562 22.351562 4.226562 24.046875 4.316406 C 25.601562 4.410156 26.472656 4.636719 27.066406 4.867188 C 27.800781 5.140625 28.347656 5.507812 28.941406 6.058594 C 29.539062 6.605469 29.859375 7.15625 30.132812 7.933594 C 30.363281 8.484375 30.636719 9.351562 30.683594 10.953125 C 30.773438 12.648438 30.773438 13.152344 30.773438 17.5 C 30.773438 21.800781 30.773438 22.351562 30.683594 24.046875 C 30.589844 25.601562 30.363281 26.472656 30.132812 27.066406 C 29.859375 27.84375 29.492188 28.347656 28.941406 28.941406 C 28.394531 29.492188 27.84375 29.859375 27.066406 30.132812 C 26.515625 30.363281 25.648438 30.636719 24.046875 30.683594 C 22.351562 30.773438 21.847656 30.773438 17.5 30.773438 C 13.199219 30.773438 12.648438 30.773438 10.953125 30.683594 C 9.398438 30.589844 8.527344 30.363281 7.933594 30.132812 C 7.199219 29.859375 6.652344 29.492188 6.058594 28.941406 C 5.507812 28.394531 5.140625 27.84375 4.867188 27.066406 C 4.636719 26.515625 4.363281 25.648438 4.316406 24.046875 C 4.226562 22.351562 4.226562 21.847656 4.226562 17.5 C 4.226562 13.199219 4.226562 12.648438 4.316406 10.953125 C 4.410156 9.398438 4.636719 8.527344 4.867188 7.933594 C 5.140625 7.199219 5.507812 6.652344 6.058594 6.058594 C 6.605469 5.460938 7.15625 5.140625 7.933594 4.867188 C 8.484375 4.636719 9.351562 4.363281 10.953125 4.316406 C 12.648438 4.273438 13.152344 4.226562 17.5 4.226562 Z M 17.5 1.296875 C 13.105469 1.296875 12.554688 1.296875 10.816406 1.386719 C 9.078125 1.480469 7.933594 1.753906 6.878906 2.121094 C 5.828125 2.53125 4.914062 3.082031 3.996094 3.996094 C 3.082031 4.914062 2.53125 5.78125 2.121094 6.878906 C 1.707031 7.886719 1.433594 9.078125 1.386719 10.816406 C 1.296875 12.554688 1.296875 13.105469 1.296875 17.5 C 1.296875 21.894531 1.296875 22.445312 1.386719 24.183594 C 1.480469 25.921875 1.753906 27.066406 2.121094 28.121094 C 2.53125 29.171875 3.082031 30.085938 3.996094 31.003906 C 4.914062 31.917969 5.78125 32.46875 6.878906 32.878906 C 7.886719 33.292969 9.078125 33.566406 10.816406 33.613281 C 12.554688 33.703125 13.105469 33.703125 17.5 33.703125 C 21.894531 33.703125 22.445312 33.703125 24.183594 33.613281 C 25.921875 33.519531 27.066406 33.246094 28.121094 32.878906 C 29.171875 32.46875 30.085938 31.917969 31.003906 31.003906 C 31.917969 30.085938 32.46875 29.21875 32.878906 28.121094 C 33.292969 27.113281 33.566406 25.921875 33.613281 24.183594 C 33.703125 22.445312 33.703125 21.894531 33.703125 17.5 C 33.703125 13.105469 33.703125 12.554688 33.613281 10.816406 C 33.519531 9.078125 33.246094 7.933594 32.878906 6.878906 C 32.46875 5.828125 31.917969 4.914062 31.003906 3.996094 C 30.085938 3.082031 29.21875 2.53125 28.121094 2.121094 C 27.113281 1.707031 25.921875 1.433594 24.183594 1.386719 C 22.445312 1.34375 21.894531 1.296875 17.5 1.296875 Z M 17.5 1.296875 "/>
<path style=" stroke:none;fill-rule:nonzero;fill:rgb(0%,0%,0%);fill-opacity:1;" d="M 17.5 9.167969 C 12.921875 9.167969 9.167969 12.875 9.167969 17.5 C 9.167969 22.078125 12.878906 25.832031 17.5 25.832031 C 22.078125 25.832031 25.832031 22.121094 25.832031 17.5 C 25.785156 12.921875 22.078125 9.167969 17.5 9.167969 Z M 17.5 22.902344 C 14.523438 22.902344 12.097656 20.476562 12.097656 17.5 C 12.097656 14.523438 14.523438 12.097656 17.5 12.097656 C 20.476562 12.097656 22.902344 14.523438 22.902344 17.5 C 22.902344 20.476562 20.476562 22.902344 17.5 22.902344 Z M 17.5 22.902344 "/>
<path style=" stroke:none;fill-rule:nonzero;fill:rgb(0%,0%,0%);fill-opacity:1;" d="M 28.074219 8.847656 C 28.074219 9.902344 27.203125 10.769531 26.152344 10.769531 C 25.097656 10.769531 24.230469 9.902344 24.230469 8.847656 C 24.230469 7.796875 25.097656 6.925781 26.152344 6.925781 C 27.203125 6.925781 28.074219 7.796875 28.074219 8.847656 Z M 28.074219 8.847656 "/>
</g>
</svg>
