<svg width="27" height="27" viewBox="0 0 27 27" fill="none" xmlns="http://www.w3.org/2000/svg">
<path d="M13.5 3.25987C16.8192 3.25987 17.2429 3.25988 18.5494 3.3305C19.75 3.40112 20.4209 3.57768 20.8799 3.75423C21.4449 3.9661 21.8686 4.24858 22.3277 4.6723C22.7867 5.09603 23.0339 5.51977 23.2458 6.12006C23.4223 6.54379 23.6342 7.21468 23.6695 8.45056C23.7401 9.75705 23.7401 10.1455 23.7401 13.5C23.7401 16.8192 23.7401 17.2429 23.6695 18.5494C23.5989 19.75 23.4223 20.4209 23.2458 20.8799C23.0339 21.4802 22.7514 21.8686 22.3277 22.3277C21.904 22.7514 21.4802 23.0339 20.8799 23.2458C20.4562 23.4223 19.7853 23.6342 18.5494 23.6695C17.2429 23.7401 16.8545 23.7401 13.5 23.7401C10.1808 23.7401 9.75705 23.7401 8.45056 23.6695C7.24999 23.5989 6.5791 23.4223 6.12006 23.2458C5.55509 23.0339 5.13135 22.7514 4.67231 22.3277C4.24859 21.9039 3.9661 21.4802 3.75423 20.8799C3.57768 20.4562 3.36581 19.7853 3.3305 18.5494C3.25988 17.2429 3.25989 16.8545 3.25989 13.5C3.25989 10.1808 3.25988 9.75705 3.3305 8.45056C3.40112 7.24999 3.57768 6.5791 3.75423 6.12006C3.9661 5.55509 4.24859 5.13134 4.67231 4.6723C5.09604 4.21326 5.51977 3.9661 6.12006 3.75423C6.54379 3.57768 7.21468 3.36581 8.45056 3.3305C9.75705 3.29519 10.1455 3.25987 13.5 3.25987ZM13.5 1C10.1102 1 9.68644 1 8.34463 1.07063C7.00282 1.14125 6.12005 1.3531 5.3079 1.63559C4.49576 1.95339 3.78955 2.37711 3.08333 3.08332C2.37712 3.78954 1.95339 4.46046 1.63559 5.30791C1.31779 6.08475 1.10593 7.00282 1.07062 8.34463C0.999994 9.68644 1 10.1102 1 13.5C1 16.8898 0.999994 17.3136 1.07062 18.6554C1.14124 19.9972 1.3531 20.8799 1.63559 21.6921C1.95339 22.5042 2.37712 23.2104 3.08333 23.9167C3.78955 24.6229 4.46045 25.0466 5.3079 25.3644C6.08474 25.6822 7.00282 25.8941 8.34463 25.9294C9.68644 26 10.1102 26 13.5 26C16.8898 26 17.3136 26 18.6554 25.9294C19.9972 25.8588 20.8799 25.6469 21.6921 25.3644C22.5042 25.0466 23.2105 24.6229 23.9167 23.9167C24.6229 23.2104 25.0466 22.5395 25.3644 21.6921C25.6822 20.9152 25.8941 19.9972 25.9294 18.6554C26 17.3136 26 16.8898 26 13.5C26 10.1102 26 9.68644 25.9294 8.34463C25.8588 7.00282 25.6469 6.12006 25.3644 5.30791C25.0466 4.49577 24.6229 3.78954 23.9167 3.08332C23.2105 2.37711 22.5395 1.95339 21.6921 1.63559C20.9152 1.31779 19.9972 1.10594 18.6554 1.07063C17.3136 1.03532 16.8898 1 13.5 1Z" fill="#556B2F" stroke="#556B2F" stroke-width="0.5"/>
<path d="M13.5 7.07324C9.96897 7.07324 7.07349 9.93339 7.07349 13.4998C7.07349 17.0309 9.93366 19.9263 13.5 19.9263C17.0311 19.9263 19.9266 17.0662 19.9266 13.4998C19.8913 9.96871 17.0311 7.07324 13.5 7.07324ZM13.5 17.6665C11.2048 17.6665 9.33337 15.795 9.33337 13.4998C9.33337 11.2046 11.2048 9.33312 13.5 9.33312C15.7952 9.33312 17.6667 11.2046 17.6667 13.4998C17.6667 15.795 15.7952 17.6665 13.5 17.6665Z" fill="#556B2F" stroke="#556B2F" stroke-width="0.5"/>
<path d="M21.6567 6.82632C21.6567 7.63846 20.9858 8.30937 20.1736 8.30937C19.3615 8.30937 18.6906 7.63846 18.6906 6.82632C18.6906 6.01417 19.3615 5.34326 20.1736 5.34326C20.9858 5.34326 21.6567 6.01417 21.6567 6.82632Z" fill="#556B2F" stroke="#556B2F" stroke-width="0.5"/>
</svg>
