<svg width="215" height="76" viewBox="0 0 215 76" fill="none" xmlns="http://www.w3.org/2000/svg">
<path d="M15.3828 23.3945C17.4216 23.3945 18.8625 24.2299 19.7056 25.9008C20.5487 27.5717 20.9702 29.9707 20.9702 33.0978C20.9702 33.8796 20.7096 34.3472 20.1885 34.5004L18.5329 35.0293C18.2723 35.106 18.0194 35.06 17.7741 34.8913C17.5289 34.7227 17.4062 34.4391 17.4062 34.0406C17.4062 29.8864 16.7317 27.495 15.3828 26.8665C14.7543 26.5446 14.0032 26.5983 13.1294 27.0275C12.2556 27.4414 11.3665 28.4531 10.4621 30.0627C9.55771 31.6569 9.07484 33.4811 9.01353 35.5352C8.98287 36.3629 9.12083 36.9991 9.42741 37.4436C9.73399 37.8729 10.3318 38.2408 11.2209 38.5473L13.1524 39.2142C15.0072 39.8427 16.2259 40.6091 16.8084 41.5135C17.3296 42.3413 17.5902 43.6826 17.5902 45.5374C17.5902 47.3769 17.092 49.3544 16.0956 51.4698C15.1145 53.5852 13.7809 55.3327 12.0947 56.7124C10.4085 58.0766 8.64563 58.7588 6.80613 58.7588C3.09648 58.7588 1.24166 55.7466 1.24166 49.7223V49.5613C1.24166 48.3656 1.47926 47.7065 1.95446 47.5839L3.70198 47.032C4.00857 46.9094 4.2615 46.9324 4.46078 47.101C4.67538 47.2696 4.78269 47.5455 4.78269 47.9288C4.78269 50.3968 4.92831 52.2592 5.21957 53.5162C5.51082 54.7579 5.99369 55.5473 6.66817 55.8846C7.14337 55.9919 7.75654 55.8846 8.50766 55.5627C9.77998 54.9955 10.922 53.8228 11.9337 52.0446C13.1754 49.8986 13.7732 47.4689 13.7272 44.7556C13.7119 43.9279 13.252 43.2687 12.3476 42.7782C11.8877 42.5482 11.2362 42.303 10.3931 42.0424L8.41569 41.4216C7.5266 41.161 6.76014 40.6628 6.11632 39.927C5.4725 39.1912 5.15059 38.1948 5.15059 36.9378C5.15059 35.6808 5.40352 34.2552 5.90938 32.661C6.43057 31.0514 7.12038 29.5568 7.97881 28.1772C8.85257 26.7976 9.94094 25.6555 11.2439 24.7511C12.5622 23.8467 13.9418 23.3945 15.3828 23.3945ZM29.5675 35.1213C29.5675 35.1213 29.2149 36.5086 28.5098 39.2831L29.1306 38.2254C29.7898 37.1371 30.5409 36.202 31.384 35.4202C32.2424 34.6231 32.9399 34.2245 33.4764 34.2245H33.5684C33.8137 34.2245 34.2046 34.4085 34.7411 34.7764C35.2776 35.1289 35.7911 35.6118 36.2817 36.225C36.7875 36.8228 37.1401 37.4436 37.3394 38.0875C37.5386 38.7313 37.508 40.0419 37.2474 42.0194C37.0021 43.9968 36.2587 46.6411 35.017 49.9522C33.7753 53.248 32.5567 55.4477 31.361 56.5514C30.1653 57.6398 28.6554 58.1839 26.8313 58.1839C25.7735 58.1839 24.7925 57.908 23.8881 57.3562L21.5657 66.3927C21.3817 67.0825 20.9065 67.4274 20.1401 67.4274H19.2893C18.7835 67.4274 18.4309 67.2818 18.2316 66.9905C18.0323 66.6993 17.9787 66.339 18.0707 65.9098L25.9805 35.0753C26.1491 34.4161 26.5783 34.0866 27.2681 34.0866H28.6248C29.4219 34.0866 29.7361 34.4315 29.5675 35.1213ZM24.5779 54.6889C26.1108 55.5627 27.3295 55.7006 28.2339 55.1028C29.1383 54.4896 30.0044 53.271 30.8322 51.4468C32.2424 48.3963 33.2158 45.3841 33.7524 42.4103C33.9976 41.092 34.0973 40.1569 34.0513 39.605C34.0053 39.0379 33.7753 38.6393 33.3615 38.4094C32.9476 38.1794 32.3957 38.3404 31.7059 38.8922C31.0161 39.4441 30.2956 40.2795 29.5445 41.3986C28.8087 42.5176 28.0729 44.0045 27.3371 45.8593C26.6166 47.7142 25.7429 50.5194 24.7158 54.275L24.5779 54.6889ZM45.8725 31.4883C45.3207 31.4883 44.8378 31.266 44.4239 30.8215C44.0101 30.3616 43.8031 29.8251 43.8031 29.2119C43.8031 28.5834 44.0254 28.0469 44.4699 27.6023C44.9145 27.1425 45.4587 26.9125 46.1025 26.9125H46.5394C47.0605 26.9125 47.5434 27.1501 47.988 27.6253C48.4325 28.1005 48.6548 28.6447 48.6548 29.2579C48.6548 29.8557 48.4172 30.3769 47.942 30.8215C47.4821 31.266 46.9149 31.4883 46.2404 31.4883H45.8725ZM46.9532 35.0753L41.2508 56.9653C41.0669 57.6551 40.5993 58 39.8482 58H38.4686C37.6101 58 37.2652 57.6398 37.4339 56.9193L43.1823 35.0293C43.3509 34.4008 43.7954 34.0866 44.5159 34.0866H46.0565C46.4704 34.0866 46.7463 34.1632 46.8843 34.3165C47.0222 34.4545 47.0452 34.7074 46.9532 35.0753ZM50.7023 58C50.7023 58 50.2961 58 49.4837 58C49.0851 58 48.7939 57.9004 48.6099 57.7011C48.426 57.5018 48.3723 57.2412 48.449 56.9193L53.5766 37.3747H50.9323C50.6104 37.3747 50.3958 37.298 50.2885 37.1447C50.1965 36.9761 50.2041 36.6772 50.3114 36.248L50.6564 34.9833C50.779 34.3855 51.1239 34.0866 51.6911 34.0866H54.4503L55.0252 31.9022C56.1748 27.5794 57.8917 24.5978 60.1757 22.9576C60.7429 22.5591 61.3561 22.2678 62.0152 22.0839C62.6744 21.8846 63.1419 21.8156 63.4178 21.8769C63.7091 21.9382 63.9237 21.9842 64.0617 22.0149L66.9359 22.7737C67.9476 23.0343 68.2005 23.6168 67.6947 24.5212L67.0968 25.6479C66.8822 26.0924 66.3304 26.1691 65.4413 25.8778L62.4061 24.8431C60.8119 26.1307 59.5626 28.4838 58.6582 31.9022L58.0833 34.0866H61.4864C61.8389 34.0866 62.0689 34.1632 62.1762 34.3165C62.2835 34.4698 62.2912 34.7381 62.1992 35.1213L61.8543 36.3399C61.655 37.0298 61.2334 37.3747 60.5896 37.3747H57.2096L52.059 56.9653C51.875 57.6551 51.4228 58 50.7023 58ZM64.1994 58C64.1994 58 63.7932 58 62.9807 58C62.5822 58 62.2909 57.9004 62.107 57.7011C61.923 57.5018 61.8694 57.2412 61.946 56.9193L67.0736 37.3747H64.4293C64.1074 37.3747 63.8928 37.298 63.7855 37.1447C63.6935 36.9761 63.7012 36.6772 63.8085 36.248L64.1534 34.9833C64.2761 34.3855 64.621 34.0866 65.1881 34.0866H67.9474L68.5222 31.9022C69.6719 27.5794 71.3888 24.5978 73.6728 22.9576C74.24 22.5591 74.8532 22.2678 75.5123 22.0839C76.1715 21.8846 76.639 21.8156 76.9149 21.8769C77.2062 21.9382 77.4208 21.9842 77.5587 22.0149L80.433 22.7737C81.4447 23.0343 81.6976 23.6168 81.1917 24.5212L80.5939 25.6479C80.3793 26.0924 79.8275 26.1691 78.9384 25.8778L75.9032 24.8431C74.309 26.1307 73.0596 28.4838 72.1552 31.9022L71.5804 34.0866H74.9834C75.336 34.0866 75.566 34.1632 75.6733 34.3165C75.7806 34.4698 75.7882 34.7381 75.6963 35.1213L75.3513 36.3399C75.1521 37.0298 74.7305 37.3747 74.0867 37.3747H70.7066L65.556 56.9653C65.3721 57.6551 64.9199 58 64.1994 58ZM90.5729 34.0866H92.6194C92.8033 34.0866 92.9566 34.2092 93.0793 34.4545C93.2172 34.6844 93.2402 34.968 93.1482 35.3052C91.9832 39.72 90.5576 44.9243 88.8714 50.9179C87.1852 56.8963 86.2348 60.2994 86.0202 61.1271C85.8056 61.9549 85.361 62.8823 84.6866 63.9094C83.9968 64.9824 83.1613 65.7719 82.1802 66.2777C81.5977 66.5996 81.1609 66.7989 80.8696 66.8756C80.2411 67.0595 79.352 66.8142 78.2023 66.1398L73.4197 63.4265C73.0058 63.2426 72.7835 62.9666 72.7528 62.5987C72.7068 62.2308 72.7988 61.9396 73.0288 61.725L73.7416 60.7362C74.0175 60.445 74.2628 60.2687 74.4774 60.2074C74.692 60.1461 74.9602 60.1921 75.2821 60.3454L80.5247 63.5645C80.816 63.7178 81.0995 63.6948 81.3755 63.4955C81.6667 63.3115 81.8967 62.9053 82.0653 62.2768L86.641 46.1353L85.5603 48.2047L82.7781 52.8724C81.7664 54.6046 80.747 55.8922 79.7199 56.7353C78.6929 57.5784 77.7808 58 76.9837 58H76.7078C76.0486 58 75.4968 57.7624 75.0522 57.2872C73.9638 56.0762 73.7109 54.3977 74.2934 52.2516L79.0991 34.7304C79.2217 34.3012 79.4747 34.0866 79.8579 34.0866H82.3182C82.7014 34.0866 82.8241 34.4621 82.6861 35.2133L77.9264 51.5388C77.6045 52.8111 77.6505 53.4702 78.0644 53.5162C78.5396 53.5622 79.3214 52.7574 80.4097 51.1019C81.5134 49.4463 83.3529 46.2732 85.9282 41.5825C88.5035 36.8918 89.8295 34.5081 89.9061 34.4315C89.9828 34.3395 90.0518 34.2705 90.1131 34.2245C90.205 34.1326 90.3583 34.0866 90.5729 34.0866Z" fill="white"/>
<path d="M156.879 24.9306C156.879 24.9306 153.888 36.636 147.905 60.0469C148.252 60.0854 149.156 60.1046 150.618 60.1046C153.099 60.1046 155.398 58.6715 157.514 55.8052C159.63 52.939 161.332 49.0532 162.621 44.1479C164.41 37.2227 164.535 32.1443 162.996 28.9125C162.785 28.4701 162.515 27.9699 162.188 27.4121C161.227 25.8539 159.457 25.0267 156.879 24.9306ZM152.003 25.0748L148.973 25.4211C148.223 25.4211 147.905 24.969 148.021 24.0649L148.252 22.3913C148.348 21.7758 148.684 21.4007 149.261 21.266C150.839 20.9582 153.08 20.8043 155.985 20.8043C160.024 20.8043 163.073 21.8912 165.132 24.0649C167.19 26.2387 168.306 29.3838 168.479 33.5005C168.71 39.1175 167.469 45.1674 164.757 51.6501C163.064 55.6706 161.082 58.7099 158.812 60.7683C156.292 63.0766 153.243 64.2308 149.665 64.2308C147.549 64.2308 145.953 64.1539 144.876 64C143.818 63.8461 143.164 63.5479 142.913 63.1055C142.663 62.6438 142.654 61.9609 142.885 61.0568L152.003 25.0748ZM178.051 57.7962C180.764 53.5257 182.187 48.8127 182.322 43.6573C182.379 41.349 182.254 39.8004 181.947 39.0117C181.658 38.223 181.071 37.8191 180.186 37.7998C179.302 37.7613 178.494 38.1749 177.763 39.0406C177.051 39.887 176.358 41.0123 175.685 42.4166C173.896 46.11 172.934 50.2555 172.8 54.853C172.723 58.4118 173.338 60.2393 174.646 60.3354C175.8 60.3739 176.935 59.5275 178.051 57.7962ZM168.01 55.4301C168.202 50.1208 169.299 45.5521 171.299 41.7241C172.165 40.0313 172.877 38.8097 173.434 38.0595C173.992 37.2901 174.666 36.5302 175.454 35.78C177.089 34.2218 179.061 33.462 181.369 33.5005C183.351 33.5966 184.89 34.5873 185.986 36.4725C186.794 37.7613 187.14 39.9158 187.025 42.936C186.929 45.9369 186.419 48.8801 185.496 51.7656C184.592 54.6318 183.572 57.0268 182.437 58.9504C180.167 62.74 177.272 64.5771 173.752 64.4617C172.463 64.404 171.299 63.8557 170.26 62.817C169.568 62.1629 169 61.2011 168.558 59.9315C168.135 58.6426 167.952 57.1422 168.01 55.4301ZM206.232 34.0487C206.232 34.0487 206.809 34.0295 207.963 33.991C208.944 33.9525 209.329 34.4623 209.117 35.5203C207.367 42.3685 205.481 49.3129 203.462 56.3535C201.442 63.394 200.432 66.924 200.432 66.9432C199.412 70.6174 197.864 73.0219 195.786 74.1569C194.844 74.657 194.209 74.9648 193.882 75.0803C193.093 75.388 191.929 75.0995 190.39 74.2146L184.36 70.8097C183.84 70.5789 183.561 70.2423 183.523 69.7998C183.484 69.3574 183.609 68.9823 183.898 68.6745L184.792 67.4337C185.427 66.7412 186.072 66.5777 186.726 66.9432L193.305 70.9829C194.209 71.3868 194.853 70.8482 195.238 69.367L198.095 59.0081C197.21 60.4701 196.238 61.7012 195.18 62.7015C194.122 63.6826 193.257 64.1731 192.583 64.1731H192.468C192.16 64.1731 191.67 63.9519 190.996 63.5095C190.323 63.0478 189.669 62.4418 189.034 61.6916C188.419 60.9222 187.986 60.1335 187.736 59.3255C187.486 58.5176 187.514 56.8729 187.822 54.3913C188.149 51.9098 189.092 48.6011 190.65 44.4653C192.208 40.3102 193.737 37.5497 195.238 36.1839C196.738 34.7989 198.633 34.1064 200.922 34.1064C202.269 34.1064 203.519 34.4719 204.673 35.2029C204.847 34.7027 205.01 34.3853 205.164 34.2507C205.337 34.116 205.693 34.0487 206.232 34.0487ZM203.75 38.4923C201.826 37.3959 200.297 37.2323 199.162 38.0018C198.027 38.752 196.931 40.2717 195.873 42.5609C194.122 46.3889 192.91 50.1689 192.237 53.9008C191.929 55.5552 191.804 56.7382 191.862 57.45C191.92 58.1425 192.208 58.633 192.728 58.9216C193.247 59.2101 193.939 59.0081 194.805 58.3156C195.671 57.6231 196.565 56.5747 197.489 55.1704C198.431 53.7662 199.355 51.9002 200.259 49.5726C201.182 47.245 202.288 43.7247 203.577 39.0117L203.75 38.4923Z" fill="white"/>
<path d="M107.151 41.5599C105.821 41.1561 104.713 40.8265 103.606 40.4804C103.184 40.3486 102.763 40.2249 102.358 40.0601C101.539 39.7223 100.771 39.5822 99.8369 39.8376C98.3492 40.2497 98.1508 40.0519 97.2416 38.3296C96.6548 37.2089 97.192 34.8192 98.2582 34.2753C98.9938 33.9045 99.8451 33.6326 100.655 33.5831C101.068 33.5584 101.663 34.0528 101.92 34.4649C102.292 35.0747 102.746 35.429 103.416 35.5444C104.986 35.8245 106.565 36.0965 108.267 36.3931C108.193 35.3054 108.077 34.4237 108.077 33.5337C108.077 32.8085 108.069 32.0422 108.309 31.3747C108.515 30.7896 108.962 30.1881 109.474 29.8255C109.995 29.4546 110.251 29.1333 110.193 28.4905C110.135 27.9137 110.185 27.3286 110.185 26.8342C109.226 26.6859 108.3 26.6776 107.474 26.3974C105.292 25.6476 104.565 22.92 106.003 21.14C107.102 19.7803 108.201 18.4207 109.367 17.1187C109.606 16.855 110.102 16.7808 110.499 16.7066C110.887 16.6242 111.342 16.7561 111.689 16.6078C113.549 15.8249 115.384 14.9761 117.235 14.1851C118.152 13.7978 118.433 13.9873 118.557 15.0503C119.475 14.9926 120.4 14.902 121.326 14.8773C122.45 14.8525 122.45 14.8937 122.467 16.0062C122.467 16.3029 122.599 16.6654 122.797 16.8714C124.004 18.0828 125.169 19.3848 127.046 19.5578C128.616 19.7062 130.137 19.5249 131.616 18.9563C132.162 18.7503 132.344 18.4454 132.319 17.8356C132.261 16.138 133.401 14.696 134.84 14.5147C136.303 14.3251 137.542 15.1409 137.923 16.5171C138.278 17.8026 137.641 19.3766 136.286 19.6897C134.873 20.0193 134.41 20.9505 133.815 22.03C133.187 23.1672 132.096 24.0571 131.558 25.219C131.079 26.2573 130.302 26.3645 129.443 26.5952C128.484 26.8507 127.558 27.2215 126.583 27.3945C125.376 27.6005 125.293 27.9054 125.806 28.9767C126.17 29.7348 126.252 30.7154 126.194 31.5807C126.07 33.4678 126.327 33.9457 128.145 34.4896C128.228 34.5143 128.327 34.5143 128.401 34.5555C130.5 35.8822 132.633 35.2559 134.749 34.6132C135.641 34.3413 136.534 34.0364 137.394 33.6738C137.741 33.5254 138.154 33.2535 138.294 32.9321C138.642 32.1246 139.311 31.8526 140.047 31.6301C140.129 31.6054 140.212 31.5725 140.303 31.5642C141.038 31.49 142.609 32.792 142.849 33.476C143.311 34.8274 142.567 36.047 142.551 37.3408C142.543 38.0165 141.824 38.1401 141.237 38.2884C139.972 38.6098 138.732 39.0054 137.468 39.335C134.955 39.986 132.443 40.6452 129.922 41.2468C128.054 41.6918 128.137 41.2138 128.252 43.241C128.401 45.7955 128.748 48.3418 129.004 50.8964C129.087 51.7286 129.451 52.5857 128.5 53.2696C128.236 53.4591 128.294 54.1431 128.244 54.5963C128.07 56.3104 128.029 58.0409 127.732 59.7219C127.517 60.9333 127.013 62.1116 126.533 63.2653C126.269 63.8998 126.302 64.3119 126.798 64.8228C127.178 65.2183 127.492 65.7704 127.632 66.306C127.988 67.6987 127.261 68.6051 125.814 68.5969C124.971 68.5887 124.128 68.4486 123.285 68.3579C123.054 68.3332 122.822 68.2838 122.591 68.3002C121.491 68.3662 120.971 68.0365 120.979 66.9488C120.987 66.1412 121.103 65.1606 121.574 64.5673C122.706 63.1335 122.591 61.5183 122.624 59.9114C122.64 59.2275 122.442 58.5188 122.244 57.8596C122.004 57.0685 121.525 56.434 120.607 56.3516C119.673 56.2774 118.88 56.6894 118.499 57.497C118.111 58.321 117.847 59.244 117.731 60.1504C117.499 61.9386 117.929 63.6279 118.855 65.1853C119.078 65.5562 119.26 65.9682 119.384 66.3802C119.723 67.5339 119.343 68.4403 118.177 68.5475C116.665 68.6958 115.094 68.6216 113.582 68.4074C112.59 68.259 112.416 66.3637 113.433 65.6633C114.383 64.9958 114.102 64.4025 113.813 63.6361C112.871 61.1393 112.168 58.593 111.962 55.9148C111.945 55.6923 111.598 55.3215 111.383 55.305C110.763 55.2721 110.548 54.9424 110.524 54.415C110.482 53.4839 110.507 52.5527 110.416 51.6298C110.301 50.4102 110.044 49.2071 109.97 47.9875C109.92 47.2211 109.548 46.9739 108.912 46.7349C107.821 46.3229 106.738 45.8532 105.73 45.2846C104.54 44.6089 104.515 43.7354 105.556 42.8454C106.011 42.4499 106.507 42.0708 107.151 41.5599ZM125.252 34.5143C123.855 35.017 122.632 35.602 121.343 35.8822C119.896 36.1954 118.392 36.2366 116.904 36.3684C116.152 36.4343 115.665 36.5579 115.508 37.5221C115.012 40.4639 113.879 43.1174 111.557 45.1528C111.325 45.3588 111.177 45.812 111.201 46.1416C111.342 48.4984 111.532 50.8552 111.739 53.2037C111.755 53.385 112.028 53.7064 112.16 53.6981C113.433 53.6075 114.706 53.4921 115.962 53.3191C118.475 52.973 120.987 52.5527 123.5 52.2148C124.913 52.0335 126.335 51.9676 127.823 51.844C127.773 51.3001 127.732 50.8387 127.69 50.3772C127.426 47.5672 127.17 44.749 126.889 41.939C126.798 41.0243 127.211 40.6287 128.062 40.4557C129.922 40.0849 131.798 39.7388 133.625 39.2114C135.245 38.7417 136.798 38.0742 138.361 37.4314C138.642 37.3161 138.98 36.8546 138.956 36.5827C138.898 35.9399 138.633 35.3136 138.46 34.6956C136.79 35.19 135.245 35.7504 133.658 36.0882C130.608 36.7475 127.599 36.8711 125.252 34.5143ZM121.921 27.0567C121.921 26.9413 121.558 26.348 121.748 26.6117C121.095 25.8536 122.186 26.3974 122.541 26.4963C123.574 26.3974 124.607 26.3233 125.641 26.2491C127.269 26.1337 128.839 25.7712 130.162 24.7741C131.608 23.6863 132.6 22.269 133.178 20.4808C132.029 20.6126 131.013 20.728 130.005 20.8434C126.484 21.2554 123.657 20.0193 121.45 17.2835C121.111 15.5035 119.805 16.1792 118.747 16.2452C118.574 16.2534 118.392 16.3605 118.235 16.3358C117.756 16.2534 117.285 16.1216 116.805 16.0062C114.987 16.7314 113.061 17.4895 111.144 18.2476C110.987 18.3053 110.763 18.3547 110.639 18.2806C110.036 17.9509 109.829 18.3959 109.532 18.7668C108.697 19.8051 107.862 20.8434 106.986 21.8405C106.251 22.681 106.432 23.5627 106.747 24.4692C107.011 25.2273 107.647 25.4003 108.366 25.4168C110.053 25.458 111.301 24.5845 111.937 23.0024C112.119 22.5574 112.466 22.1701 112.739 21.758C112.879 21.8157 113.011 21.8652 113.152 21.9229C113.045 22.3761 113.02 22.8788 112.797 23.2743C112.532 23.7522 112.094 24.1231 111.747 24.5598C111.606 24.7329 111.408 24.9471 111.4 25.1449C111.35 26.3645 111.301 27.5923 111.35 28.8201C111.383 29.7513 112.706 30.9627 113.664 31.0039C116.714 31.1439 119.657 30.6907 122.541 29.6442C123.632 29.2486 124.145 28.6224 124.227 27.5429C123.459 27.3781 122.69 27.2215 121.921 27.0567ZM123.508 64.3943C124.393 64.9216 124.74 64.831 125.153 63.8009C126.285 60.9827 126.971 58.0821 126.946 55.0331C126.938 53.4427 126.781 53.1872 125.136 53.0059C121.665 52.6104 118.351 53.5251 115.069 54.4315C113.565 54.8436 113.127 55.5522 113.292 57.1262C113.565 59.7219 114.367 62.1941 115.491 64.5508C115.962 65.5397 116.268 65.5891 117.276 64.9958C117.111 64.4767 116.896 63.9658 116.789 63.4301C116.293 60.9909 116.235 58.593 117.764 56.4587C119.177 54.481 122.053 54.687 123.087 56.8872C123.508 57.7854 123.773 58.8402 123.797 59.829C123.847 61.3206 123.624 62.8286 123.508 64.3943ZM106.226 44.2463C107.168 44.7078 107.953 45.161 108.788 45.4824C109.433 45.7296 110.135 45.7049 110.672 45.161C111.292 44.543 111.937 43.9414 112.474 43.2574C115.094 39.8871 115.16 35.874 115.251 31.8609C113.821 31.9762 112.433 31.8197 111.251 30.9379C110.639 30.4847 110.177 30.6248 109.838 31.1192C109.54 31.556 109.292 32.1163 109.276 32.6272C109.259 33.5831 109.367 34.5473 109.54 35.4867C110.061 38.3626 109.507 40.9089 107.391 43.0267C107.036 43.3646 106.705 43.7354 106.226 44.2463ZM124.698 30.0232C123.351 30.9874 121.797 31.35 120.186 31.49C119.053 31.5889 117.913 31.6713 116.789 31.8032C116.557 31.8279 116.185 32.0257 116.152 32.1987C115.97 33.1134 115.871 34.0364 115.747 34.9593C115.673 35.5361 115.946 35.7751 116.508 35.7092C118.508 35.4867 120.533 35.4043 122.492 35.0005C124.855 34.5143 125.748 32.3553 124.698 30.0232ZM101.854 36.492C101.878 37.2913 101.432 38.1483 102.399 38.4944C104.209 39.1454 106.044 39.714 107.879 40.2579C108.069 40.3156 108.499 40.0437 108.598 39.8212C108.796 39.3844 108.862 38.8735 108.945 38.3956C109.028 37.8764 108.854 37.5798 108.251 37.555C107.581 37.5303 106.912 37.4232 106.259 37.3078C104.829 37.0524 103.407 36.7804 101.854 36.492ZM124.773 67.3196C124.773 67.3114 124.773 67.2949 124.773 67.2867C125.037 67.2867 125.31 67.3361 125.558 67.2702C125.839 67.196 126.269 67.0642 126.31 66.8829C126.376 66.5945 126.236 66.1989 126.054 65.9435C125.905 65.7292 125.583 65.5726 125.31 65.5232C124.541 65.3666 123.756 65.2101 122.971 65.1606C122.252 65.1112 122.301 65.7704 122.227 66.2236C122.161 66.6274 122.136 67.0642 122.756 67.1136C123.434 67.1713 124.103 67.2537 124.773 67.3196ZM98.8616 38.6016C99.746 38.8488 100.696 38.6263 100.895 38.0577C101.234 37.0853 101.539 35.9399 101.027 35.0829C100.49 35.1818 100.093 35.2065 99.7294 35.3301C99.4897 35.4125 99.2996 35.6185 99.0847 35.7751C100.068 36.6651 99.2831 36.8299 98.5723 37.0359C98.5062 37.0524 98.4731 37.2089 98.4235 37.3078C99.6302 37.6951 99.6385 37.7281 98.8616 38.6016ZM134.815 18.8904C135.84 18.8656 136.741 18.1322 136.716 17.3412C136.699 16.6654 135.988 16.0721 135.195 16.0721C134.335 16.0804 133.658 16.7396 133.691 17.5389C133.732 18.4207 134.137 18.9068 134.815 18.8904ZM140.807 34.9016C141.038 34.539 141.253 34.2176 141.46 33.8963C140.997 33.8303 140.617 34.0858 140.336 34.0034C140.113 33.9457 140.014 33.4678 139.857 33.1711C138.832 33.7974 138.873 34.5555 140.162 37.2501C140.642 37.1513 141.328 37.382 141.336 36.5167C141.336 36.1624 141.245 35.8163 141.187 35.462C141.262 35.4455 141.328 35.4208 141.402 35.4043C141.212 35.2395 141.022 35.0829 140.807 34.9016ZM115.838 67.608C116.375 67.5504 116.88 67.5668 117.351 67.435C117.673 67.3443 118.194 67.0312 118.177 66.8582C118.128 66.306 117.913 65.7787 117.111 65.9599C116.516 66.0918 115.888 66.0671 115.293 66.1907C114.937 66.2648 114.549 66.4132 114.301 66.6521C113.937 67.0065 113.912 67.3855 114.582 67.4597C115.012 67.5092 115.441 67.5668 115.838 67.608Z" fill="black"/>
<path d="M138.686 36.2862C138.629 35.6119 138.369 34.9549 138.198 34.3065C136.556 34.8252 135.036 35.4131 133.475 35.7675C130.467 36.4591 127.508 36.5887 125.199 34.125C123.825 34.6523 122.621 35.2661 121.353 35.56C119.93 35.8885 118.451 35.9317 116.987 36.0701C116.248 36.1392 115.768 36.2689 115.613 37.2803C115.126 40.3665 114.012 43.1501 111.727 45.2853C111.5 45.5014 111.353 45.9769 111.378 46.3227C111.516 48.795 111.703 51.2674 111.906 53.7312C111.922 53.9213 112.191 54.2585 112.321 54.2498C113.573 54.1547 114.825 54.0337 116.061 53.8522C118.532 53.4891 121.004 53.0482 123.475 52.6938C124.865 52.5036 126.264 52.4345 127.727 52.3048C127.678 51.7342 127.638 51.2501 127.597 50.766C127.337 47.8182 127.085 44.8617 126.808 41.9139C126.719 40.9543 127.125 40.5394 127.963 40.3578C129.792 39.9688 131.638 39.6057 133.434 39.0525C135.028 38.5597 136.556 37.8595 138.093 37.1852C138.369 37.0469 138.711 36.5714 138.686 36.2862Z" fill="white"/>
<path d="M123.576 64.0691C123.697 62.5273 123.932 61.0581 123.88 59.589C123.845 58.6204 123.576 57.5871 123.133 56.7073C122.048 54.552 119.036 54.3502 117.543 56.2875C115.937 58.3782 115.989 60.7353 116.519 63.1165C116.632 63.6412 116.857 64.1417 117.031 64.6503C115.972 65.2395 115.651 65.183 115.156 64.2144C113.975 61.9057 113.133 59.4841 112.847 56.9413C112.673 55.3996 113.133 54.7134 114.713 54.3018C118.168 53.4138 121.64 52.5178 125.286 52.9053C127.013 53.0909 127.178 53.3331 127.187 54.891C127.213 57.8777 126.484 60.7272 125.303 63.4798C124.869 64.4969 124.505 64.5937 123.576 64.0691Z" fill="white"/>
<path d="M106.344 44.2352C106.81 43.7201 107.126 43.3462 107.457 42.9972C109.479 40.8619 110.009 38.2945 109.511 35.3947C109.345 34.4476 109.242 33.4754 109.258 32.5116C109.266 31.9965 109.511 31.4315 109.795 30.9911C110.119 30.4926 110.561 30.3513 111.146 30.8083C112.268 31.6974 113.602 31.8552 114.969 31.7389C114.89 35.7936 114.827 39.8316 112.315 43.2299C111.802 43.9195 111.185 44.5261 110.593 45.1492C110.08 45.6976 109.408 45.7225 108.792 45.4732C107.987 45.1575 107.244 44.7005 106.344 44.2352Z" fill="white"/>
<path d="M124.599 29.8125C125.642 32.163 124.755 34.3391 122.399 34.8375C120.453 35.2445 118.441 35.3275 116.455 35.5518C115.904 35.6182 115.625 35.3773 115.699 34.7959C115.822 33.8657 115.921 32.9272 116.101 32.0135C116.134 31.8391 116.504 31.6398 116.734 31.6148C117.858 31.482 118.983 31.3989 120.108 31.2992C121.726 31.1497 123.261 30.7843 124.599 29.8125Z" fill="white"/>
<path d="M102.11 36.2812C103.655 36.5565 105.084 36.816 106.514 37.052C107.175 37.1621 107.844 37.2643 108.505 37.2879C109.109 37.3115 109.282 37.5946 109.199 38.0901C109.117 38.5541 109.051 39.0339 108.852 39.4507C108.753 39.663 108.324 39.9226 108.133 39.8675C106.291 39.3484 104.456 38.8058 102.655 38.1845C101.688 37.862 102.143 37.0441 102.11 36.2812Z" fill="white"/>
<path d="M124.838 67.1875C124.14 67.1217 123.441 67.0313 122.742 66.982C122.095 66.9327 122.121 66.497 122.19 66.0943C122.268 65.634 122.216 64.9846 122.967 65.0339C123.786 65.0832 124.597 65.2312 125.408 65.3956C125.692 65.4531 126.029 65.6093 126.184 65.8148C126.374 66.0778 126.52 66.4642 126.451 66.7518C126.408 66.9327 125.96 67.0642 125.666 67.1382C125.408 67.2039 125.123 67.1546 124.847 67.1546C124.838 67.1711 124.838 67.1793 124.838 67.1875Z" fill="white"/>
<path d="M98.8753 38.3378C99.6602 37.4684 99.6436 37.4438 98.4375 37.0583C98.4871 36.9599 98.5201 36.804 98.5862 36.7876C99.2967 36.5826 100.081 36.4185 99.0984 35.5327C99.3132 35.3769 99.5032 35.1718 99.7428 35.0898C100.106 34.9668 100.495 34.9422 101.04 34.8438C101.552 35.6968 101.246 36.8369 100.908 37.8047C100.701 38.3624 99.7593 38.5839 98.8753 38.3378Z" fill="white"/>
<path d="M134.993 19.0308C134.188 19.0477 133.707 18.5503 133.658 17.6568C133.609 16.8391 134.414 16.1563 135.444 16.1563C136.386 16.1479 137.23 16.7548 137.249 17.4545C137.279 18.2553 136.2 19.0055 134.993 19.0308Z" fill="white"/>
<path d="M140.956 34.517C141.155 34.7087 141.332 34.8742 141.509 35.0485C141.44 35.0659 141.378 35.092 141.309 35.1095C141.355 35.4841 141.447 35.85 141.447 36.2246C141.44 37.1394 140.802 36.8955 140.356 37C139.158 34.1511 139.127 33.3496 140.072 32.6875C140.218 32.9924 140.31 33.4977 140.518 33.5674C140.779 33.6545 141.132 33.3845 141.562 33.4542C141.37 33.7939 141.178 34.1337 140.956 34.517Z" fill="white"/>
<path d="M116.128 67.9062C115.714 67.8429 115.265 67.7796 114.808 67.7163C114.109 67.6214 114.134 67.136 114.514 66.6823C114.773 66.3764 115.187 66.1759 115.55 66.0915C116.171 65.9332 116.827 65.9649 117.449 65.7961C118.286 65.5639 118.51 66.2497 118.562 66.9461C118.579 67.1677 118.036 67.5686 117.699 67.6847C117.216 67.8535 116.689 67.8429 116.128 67.9062Z" fill="white"/>
<path d="M116.734 20.6358C116.803 20.6768 116.897 20.7041 116.948 20.7588C117.649 21.5169 117.88 21.5374 118.752 20.8749C119.085 20.6222 119.393 20.2806 120 20.5948C119.632 21.2847 119.179 21.9062 118.179 21.9062C117.615 21.9062 117.008 21.6672 116.504 21.4281C116.341 21.353 116.435 20.9227 116.418 20.6563C116.529 20.6563 116.632 20.6495 116.734 20.6358Z" fill="black"/>
<path d="M121.443 20.4688C122.339 21.2645 123.282 21.4803 124.301 20.698C124.394 21.4938 123.907 21.8917 123.019 21.9052C121.984 21.9322 121.373 21.4399 121.443 20.4688Z" fill="black"/>
<path d="M129.777 21.0164C126.271 21.4303 123.456 20.1884 121.259 17.4396C120.921 15.6512 119.621 16.3301 118.567 16.3964C118.394 16.4046 118.213 16.5123 118.057 16.4874C117.58 16.4046 117.11 16.2722 116.633 16.1562C114.822 16.8849 112.905 17.6466 110.995 18.4083C110.839 18.4663 110.617 18.5159 110.493 18.4414C109.892 18.1102 109.687 18.5573 109.39 18.9299C108.559 19.9731 107.728 21.0164 106.855 22.0182C106.123 22.8627 106.304 23.7486 106.617 24.6594C106.88 25.4211 107.514 25.595 108.23 25.6115C109.909 25.6529 111.152 24.7753 111.785 23.1856C111.966 22.7385 112.312 22.3494 112.584 21.9354C112.724 21.9934 112.855 22.043 112.995 22.101C112.888 22.5564 112.864 23.0614 112.641 23.4588C112.378 23.939 111.942 24.3116 111.596 24.7504C111.456 24.9243 111.259 25.1396 111.25 25.3383C111.201 26.5637 111.152 27.7973 111.201 29.031C111.234 29.9666 112.551 31.1837 113.506 31.2251C116.543 31.3658 119.473 30.9105 122.345 29.8589C123.431 29.4615 123.942 28.8323 124.024 27.7477C123.259 27.5903 122.485 27.4247 121.719 27.2674C121.719 27.1515 121.382 26.6134 121.39 26.4974C121.596 26.4229 122.139 26.7293 122.345 26.7044C123.374 26.6051 124.403 26.5306 125.431 26.456C127.053 26.3401 128.617 25.9758 129.933 24.974C131.374 23.8811 132.361 22.457 132.938 20.6603C131.793 20.7845 130.789 20.9004 129.777 21.0164ZM114.584 25.7357C114.501 25.5701 114.32 25.2969 114.353 25.2638C114.6 25.032 114.896 24.8581 115.176 24.6594C115.267 24.7753 115.349 24.8912 115.44 24.9988C115.152 25.2472 114.864 25.4956 114.584 25.7357ZM115.53 26.6465C115.423 26.6134 115.324 26.572 115.217 26.5388C114.905 25.9427 115.399 25.6032 115.777 25.2307C115.884 25.2721 115.999 25.3135 116.106 25.3549C115.925 25.7854 115.728 26.2159 115.53 26.6465ZM117.81 22.4984C117.267 22.4984 116.682 22.2086 116.197 21.9188C116.04 21.8278 116.131 21.3061 116.115 20.9832C116.213 20.975 116.312 20.9667 116.411 20.9501C116.477 20.9998 116.567 21.0329 116.617 21.0992C117.292 22.0182 117.514 22.043 118.353 21.2399C118.674 20.9336 118.971 20.5196 119.555 20.9004C119.209 21.7367 118.765 22.4984 117.81 22.4984ZM122.773 22.1589C121.678 22.1838 121.028 21.5877 121.094 20.3871C122.049 21.3641 123.053 21.629 124.139 20.6686C124.246 21.6539 123.719 22.1424 122.773 22.1589Z" fill="white"/>
<path d="M116.406 24.9073C116.264 25.3445 116.127 25.7816 115.985 26.2188C115.907 26.1851 115.836 26.1431 115.759 26.1095C115.533 25.5042 115.89 25.1595 116.163 24.7812C116.246 24.8233 116.329 24.8653 116.406 24.9073Z" fill="black"/>
<path d="M115.688 25.0079C115.308 25.1738 114.939 25.3341 114.559 25.5C114.451 25.3894 114.212 25.207 114.255 25.1849C114.581 25.03 114.971 24.9139 115.34 24.7812C115.46 24.8531 115.568 24.9305 115.688 25.0079Z" fill="black"/>
<path d="M124.972 48.5C125.146 49.277 124.933 49.7562 124.38 49.9375C124.205 49.3159 124.36 48.9144 124.972 48.5Z" fill="black"/>
<path d="M115.688 46.3438C115.162 46.27 114.9 45.9874 114.984 45.625C115.462 45.7724 115.5 46.0612 115.688 46.3438Z" fill="black"/>
</svg>
