<?xml version="1.0" encoding="utf-8"?>
<svg version="1.1" id="Layer_1" xmlns="http://www.w3.org/2000/svg" xmlns:xlink="http://www.w3.org/1999/xlink" x="0px" y="0px"
	 viewBox="0 0 489.7 792" style="enable-background:new 0 0 489.7 792;" xml:space="preserve">
<path d="M338.9,787.6c-0.4-0.2-0.8-0.5-1.2-0.6c-8.8-2.4-10.1-7.1-8.8-16.3c0.3-2.2,1.5-3.1,3.9-1.9c9,4.7,15.8,3.3,22.6-4.6
	c7.3-8.4,12-18.3,16.6-28.2c5.3-11.3,10.7-22.5,16.1-33.7c0.7-1.4,1.1-2.9,1.6-4.4c-0.3-0.2-0.6-0.3-0.9-0.5
	c-3.6,3.8-7.2,7.7-10.8,11.5c-3.6,3.8-7,7.7-10.8,11.3c-2,1.9-4.2,3.6-6.6,4.9c-5.2,2.8-9.7,0.4-9.2-5.5c0.6-6.8,2.1-13.6,3.8-20.3
	c1.1-4.5,3.1-8.7,4.7-13c0.4-1,0.5-2.2,0.8-3.2c-0.3-0.2-0.6-0.4-0.9-0.6c-1.7,1.8-3.4,3.7-5.3,5.4c-1.5,1.4-3.3,2.4-4.9,3.6
	c-0.5-2.2-1.4-4.3-1.4-6.5c0-2,0.9-4,1.4-6c-5.5-0.8-7-0.2-9.3,4.6c-9.8,20-20.2,39.7-26,61.4c-0.8,2.9-2.2,3.4-4.9,1.9
	c-4.2-2.3-6.3-7.5-4.2-12.2c4.9-11.4,10.1-22.8,15.4-34.1c3-6.4,6.5-12.7,10.3-19.8c-5.5,0.7-9.9,1.3-14.4,1.9
	c-4.2,0.6-4.8,0.1-5.5-4.2c-2.2,0.1-4.5,0.2-6.8,0.3c-2.4,0.1-4.1,1-5.2,3.3c-10.1,20.5-20.8,40.7-26.8,62.9
	c-0.8,2.8-2.2,3.3-4.9,1.9c-4.4-2.4-6.3-7.6-4-12.9c4.9-11.3,10-22.5,15.3-33.7c3-6.3,6.4-12.5,10.1-19.5c-5.3,0.7-9.7,1.4-14,1.7
	c-1.7,0.1-3.5-0.7-5.3-1.1c0.5-1.8,0.6-3.8,1.6-5.3c1.1-1.9,2.6-3.7,4.3-4.9c1.9-1.3,4.2-2.3,6.4-2.7c3.9-0.6,7.8-0.5,11.7-1
	c1-0.1,2.1-1.1,2.7-2c6.2-10,12.1-20.2,18.5-30.1c1.9-2.9,4.8-5.3,7.6-7.5c3.7-2.9,9.5-2.7,12.1,0.1c3.1,3.3,4.4,11.8,2,14.9
	c-0.6,0.7-1.9,1.7-2.4,1.5c-0.9-0.4-1.7-1.5-2.1-2.4c-1.7-4-2.3-4.4-5.1-0.9c-6.5,8-12.7,16.3-19.1,24.4c0.9,0.7,1.1,0.9,1.2,0.9
	c8.8-0.7,17.3,2.4,26.2,1.4c1.8-0.2,2.7-0.8,3.6-2.4c6-10.2,12.1-20.4,18.6-30.4c1.8-2.8,4.7-5.1,7.4-7.2c5.7-4.2,12-1.9,14.1,4.8
	c1,3.2,2,6.5,0.1,9.7c-0.6,1-1.7,2-2.8,2.2c-0.5,0.1-1.7-1.4-2.1-2.4c-1.8-4.3-2.3-4.6-5.2-0.9c-6.4,8-12.6,16.1-18.6,24.7
	c6.6,0,13.2,2.6,19.2-1.4c0.5-0.3,1-0.6,1.5-0.8c2.2-0.9,4.5-2.7,6.6-0.3c2.1,2.4,3.4,5.3,1.7,8.6c-3.7,7.3-7.5,14.6-11.1,21.9
	c-2,4-3.6,8.1-5.7,13c1.4-0.6,2.1-0.7,2.5-1.1c8.3-8.2,17-16,24.6-24.8c5.8-6.7,10.2-14.5,15.2-21.8c3.2-4.7,8.3-4.3,10.8,0.8
	c2.2,4.5,1.6,8.8-0.8,13.2c-6,10.9-12.4,21.7-17.6,33c-6.1,13.2-10.7,27-16.8,40.2c-4.1,9-9.2,17.6-14.6,25.9
	c-5.1,7.9-13.2,12.3-22,15.4C342.2,787.6,340.5,787.6,338.9,787.6z"/>
<path d="M462.3,195.9c4.8-1.7,9.6-3.5,14.7-5.3c-2.5,9.8-6.7,18.5-16.3,24.3c8.4,2.8,16.1,1.2,24.7-0.6c-8.8,8.9-18.1,15.6-29,20.3
	c9.5,1.1,19.2-0.5,28.3,2.6c0.1,0.4,0.1,0.8,0.2,1.2c-7.4,2.1-14.7,4.1-22.2,6.3c7.9,6.1,15.7,12.4,15.3,24.8
	c-5.9-2.5-11.2-4.8-16.5-7.1c-0.2,0.4-0.5,0.8-0.7,1.2c8.1,9.4,19.1,16.6,23,30.5c-8.3-3.2-15.9-6.1-24.4-9.4
	c5.3,6.4,10.2,11.8,14.5,17.6c4.4,5.8,8.5,12,7.9,20.3c-9.7-3.2-16.5-11.2-27.4-11.8c13.1,15.4,23.5,31.4,25.2,52.7
	c-3-2.3-5.3-3.9-7.5-5.8c-5.5-4.8-10.7-9.8-16.2-14.6c-3.8-3.3-8-6.2-13.9-6.9c6.9,15.3,18.6,28.1,18.5,46.1
	c-8.6-7.3-13.7-18-25.1-21.6c13,16.9,20.8,35.5,22,57.4c-6.4-5.6-9.4-14.5-18.7-16c9.7,16,9,33.1,6.9,51.4c-1.3-1.8-2-2.9-2.8-4
	c-12-18.5-25.2-36-42.6-49.8c-14.2-11.3-29.8-18.9-48.5-18.2c-1.2,0-2.3,0.2-3.4,0.3c-0.4,0.1-0.8,0.3-0.5,0.2
	c8.2,4,17.3,7.4,25.3,12.5c34.6,22.2,53.9,54,56.6,95.2c0.5,7.2-1.4,14.6-2.3,21.9c-0.1,1.2-0.8,2.3-1.2,3.5c-0.3,0-0.6,0-0.9,0
	c-0.8-3.4-1.6-6.8-2.4-10.2c-0.8-3.2-0.7-6.8-5.1-9.2c0,2,0,3.2,0,4.5c0,16.3-0.7,32.6-4.9,48.4c-2.2,8.1-5.3,15.8-11,22.1
	c-0.6,0.7-1.3,1.3-1.9,2c-0.2,0.2-0.6,0.4-1.3,0.8c-1-4.5-2-8.8-3-13.1c-2.7-11-5.8-21.9-11.6-31.7c-3-5-6.7-9.3-12.3-12.1
	c10.9,17.2,10.4,35.9,7,55.1c-0.2-0.5-0.5-1-0.7-1.6c-8.4-30.2-27.1-52.4-53.6-68.3c-12.1-7.2-24.7-13.4-37-20.3
	c-4.3-2.4-8.5-5-12.3-8.1c-3.2-2.6-6.5-4-10.7-4c-15.7,0.1-31.4,0-47.1,0.1c-1.9,0-4.1,0.8-5.8,1.8c-19.5,11-39,22-58.4,33.2
	c-1.7,1-3.1,2.7-4.2,4.4c-13.4,20.5-26.8,41-40.2,61.5c-0.6,0.8-1.1,1.7-2,3c-4.4-21.3,1.7-40.3,9.6-59.1
	c-7.8,5.1-13.3,12-16.7,20.1c-4.7,10.9-8.4,22.2-12.5,33.3c-0.6,1.7-1,3.5-1.7,6c-8-12.1-12-24.9-14.3-38.5
	c-2.3-13.5-2.4-27-1.3-40.6c-0.4-0.1-0.7-0.2-1.1-0.3c-2.4,6.4-4.8,12.7-7.2,19.1c-0.4-0.1-0.8-0.2-1.2-0.3c-0.4-3.6-1-7.2-1.2-10.8
	c-1.8-21.7,0.4-42.7,10.4-62.4c12.5-24.5,32.8-40.3,58-49.8c10.7-4.1,22.1-6.2,33.3-9.3c0.9-0.2,1.7-0.5,2.6-0.7
	c-23.6-2-46.5-0.7-67.1,12.9c-12.2,8-22.8,17.6-32.1,28.8c-5.8,7-11.2,14.4-16.7,21.7c-1,1.2-1.9,2.5-3.4,4.6
	c-1.1-17.2-0.7-33,6.6-48.8c-4.7,1.8-7.9,4.6-10.8,7.7c-2.9,3.1-5.5,6.5-8.7,10.3c-0.3-12,2-23,7.2-33.1c5.2-10,11.5-19.4,17.3-29
	c-2.1,1.5-4.9,3-7.1,5c-4.1,3.8-7.7,8-11.8,11.7c-2.3,2.1-5,3.8-8,5.4c0.1-16.8,7.7-30,19-41.6c-15.6,3.9-27.3,13.7-39.1,24.7
	c0-2.6-0.4-5.3,0.1-7.9c1.8-10.5,7.8-18.9,14-27.1c4.2-5.5,8.6-10.8,13.4-16.7c-5.2-0.1-9.6,1.5-13.8,3.2c-4.4,1.8-8.6,3.9-13.3,6.1
	c0.3-7.3,3.2-13.3,7.6-18.5c4.3-5.1,9.1-9.8,13.7-14.6c-7.5,1.7-15.1,3.4-23.2,5.2c3.7-11.8,12-19.8,21.4-27.1
	c-0.2-0.4-0.3-0.7-0.5-1.1c-2.8,0.8-5.8,1.4-8.5,2.4c-2.9,1.1-5.6,2.5-8.9,4c0.3-6,0.4-11.8,4.8-15.8c4-3.6,8.9-6.3,13.6-9.5
	c-2.4-2.7-6.2-3-9.9-3.8c-3.6-0.7-7.2-1.3-10.9-2c-0.2-0.3-0.3-0.7-0.5-1c1.9-1,3.7-2.5,5.7-2.8c5.3-0.6,10.6-0.6,15.9-0.9
	c1.4-0.1,2.7,0,4.3-0.4c-9.9-5.6-19.1-11.9-25.9-21.2c7.5,0.6,14.7,1.2,22,1.8c-3.3-4-6.7-7.4-9.3-11.3c-2.5-3.9-4.1-8.4-6.4-13.3
	c5.3,0.8,9.7,1.4,15,2.2c-0.6-3.8-0.3-7.7-1.8-10.6c-6.5-11.8-4.7-23.8-1.7-35.7c3.3-13.3,7.7-26.3,11.2-39.6
	c6.1-22.7,7.2-46,6.5-69.4c-0.1-4.7-0.4-9.5-0.2-14.2C43.3,9.2,50.5,3.5,61.8,5.4c10.4,1.7,19.8,6.2,28.8,11.4
	c25.9,14.9,49,33.5,70.4,54.2c10.4,10.1,19.9,21.1,29.7,31.9c2.7,2.9,4.6,6.6,7.3,10.5c1.5-12.9-2.2-24.6-4.3-36.5
	c4.6,4.8,7.4,10.5,9.3,16.7c4.4,14.2,4.7,28.9,4.5,43.6c0,0.9,0,1.8,0,2.8c0,0.2,0.2,0.4,0.4,1.1c25.8-4.1,51.6-1.1,77.8,1.4
	c-0.6-22.2-1.4-44.2,12.5-64.1c-0.7,13.1-5.9,25-2.7,38.2c0.9-1,1.4-1.4,1.7-1.9c20.2-34,47.8-60.9,80.5-82.7
	c11.9-7.9,24.3-15.2,36.8-22c7.3-4,15.6-5.6,24.1-5.3c6.5,0.2,11.6,4.2,12.3,11.4c1.1,11.4,1.2,23,1.2,34.5
	c0,10.3-1.9,20.6-0.8,30.8c1.2,11.6,4.7,23,7.2,34.4c3,13.5,6.4,26.9,8.8,40.5c2.3,13.3,1.9,26.5-5.6,38.5
	C461.8,195.1,462,195.5,462.3,195.9z M449.8,162.8c0-2,0.1-3.2,0-4.5c-1.5-11.2-2.7-22.4-4.6-33.6c-1.8-10.8-8.3-19.7-12.9-29.3
	c-1.8-3.7-3.4-8.2-3.1-12.1c0.8-10,2.7-19.8,4.4-29.7c0.9-5.5,2.5-10.8,3.4-16.2c0.9-5.2-0.3-6.9-5.3-8.2c-2.5-0.7-5.2-1.1-7.8-1.2
	c-11.5-0.4-21.2,4.3-29.8,11.3c-10.8,8.9-21.1,18.5-31.7,27.8c-13,11.4-26,22.8-39,34.3c-0.6,0.5-1.1,1.2-2.2,2.4
	c16-5,30.9-10.8,47.6-12.6c-3.9,9.3-7.2,17.9-10.9,26.3c-1.3,2.9-0.5,4.4,2.1,5.3c4.2,1.5,8.4,3.2,12.7,4.4
	c21.9,5.8,42.9,13.4,61.9,26.1C439.4,156.4,444.3,159.3,449.8,162.8z M173.3,103c-5.5-4.9-11-9.8-16.6-14.6
	c-14-12.3-28-24.7-42.2-37c-6.3-5.5-12.6-11.2-19.5-16c-8.2-5.8-17.6-8.7-27.9-7.1c-9.6,1.5-10.7,3.3-8.7,12.9
	c2.4,11.5,4.9,23,6.9,34.6c1.3,7.6,0.7,15-3.8,21.9c-9.3,14.2-13.8,30.1-15.1,46.9c-0.5,5.8-1.1,11.6-1.7,18.2
	c2.3-1.4,3.9-2.2,5.4-3.2c21.2-14.4,43.8-25.5,68.8-31.6c5.6-1.3,10.9-3.6,16.4-5.5c2.4-0.8,3-2.4,1.9-4.9
	c-2.5-5.7-4.8-11.5-7.2-17.2c-1.2-2.8-2.3-5.7-3.7-9.3C143,92.9,157.8,98.7,173.3,103z M363.9,504c0.3-0.1,0.5-0.2,0.8-0.4
	c0-0.8,0.2-1.5,0.1-2.3c-0.3-5.6-0.1-5.8,5.3-5c16.5,2.4,30.8,16.1,34.1,32.6c0.3,1.3,1.4,2.4,2.1,3.6c0.8-1.1,2.1-2.1,2.3-3.3
	c1.4-9.4,2.1-18.8-0.1-28.2c-1.4-6.3-2.8-12.6-4-18.9c-0.2-1.3,0.3-3.8,1-4c5.4-1.6,3.8-5.6,2.9-8.8c-1.6-5.3-3.6-10.4-5.8-15.5
	c-4.6-10.6-9.6-21.2-18.8-28.7c-21.7-17.5-45.4-31.1-72.9-37.3c-4.8-1.1-9.8-1.1-14.7-1.6c1.3,1.1,2.7,1.7,4.2,2.3
	c8.3,3.4,16.7,6.7,24.9,10.3c4.1,1.8,7.2,4.7,9.9,9c-4.6-0.6-8.6-1.2-12.6-1.8c1,2,2.1,3.2,3.3,4.3c7.9,7.4,15.8,14.8,23.6,22.4
	c1.3,1.2,2,2.9,3,4.4c-0.3,0.3-0.6,0.6-0.9,0.9c-4-1.9-8-3.8-12-5.7c-0.1,0.3-0.3,0.5-0.4,0.8c1.2,1.3,2.3,2.6,3.8,4.3
	c-8.5,0.7-16.4,1.4-24.2,2.1c-0.2,0.4-0.3,0.7-0.5,1.1c5.4,6.3,10.8,12.6,16.2,18.9c-2.3,0.2-4.2-0.3-6-0.9
	c-6.8-2.3-13.5-4.7-20.3-6.8c-4.4-1.3-8.9-2-13.9-0.3c5.4,4.7,13,6.8,15,15.2c-3.7-0.2-6.7-0.4-9.8-0.6c1.7,1.6,3.6,2.6,5.4,3.4
	c6.4,2.8,13,5.3,19.3,8.5c5.1,2.6,10,5.7,14.5,9.2c3.8,3,7.6,5.6,12.3,6.6c4.4,1,8.2,2.9,10.4,7.2C362.2,502.2,363.2,503,363.9,504z
	 M126.1,504.5c1.3-1.3,2.3-1.9,2.7-2.7c2.5-5.1,7-6.8,12.1-8.3c3.3-1,6.4-2.9,9.4-4.8c4.9-3.1,9.4-7,14.6-9.8
	c6.6-3.5,13.7-6.1,20.5-9.2c2-0.9,4-1.9,6-2.9c-0.1-0.2-0.2-0.5-0.2-0.7c-3.1,0.2-6.3,0.5-10,0.7c1.8-8.5,9.6-10.4,15.3-15.7
	c-4.2,0-7.7-0.7-10.7,0.1c-8.2,2.2-16.3,5.1-24.4,7.7c-1.6,0.5-3.3,0.9-5,1.3c-0.1-0.2-0.2-0.5-0.3-0.7c5.4-6.3,10.8-12.6,16.9-19.8
	c-9.1-0.8-17-1.5-25.4-2.2c1.5-1.7,2.6-3,3.7-4.3c-0.1-0.2-0.3-0.4-0.4-0.6c-4.1,1.9-8.2,3.8-12.3,5.7c-0.3-0.4-0.5-0.8-0.8-1.3
	c8.7-11.4,20.6-19.6,30-30.8c-3.9,0.6-7.9,1.2-11.8,1.7c9.7-12.8,25.3-14.5,38.5-21.2c-12.2-0.2-23.2,3.4-34.1,7.1
	c-15.8,5.3-29.4,14.8-43.3,23.6c-9.3,5.9-17.2,13.4-22.3,23.3c-4,7.8-7.5,15.8-10.9,23.9c-1.2,2.9-1.7,6.2-2,9.4
	c-0.1,1.1,0.8,3.1,1.6,3.4c3.6,0.9,3.3,3.5,2.9,6c-0.6,3.5-1.2,7.1-2.2,10.5c-2.5,8.6-3.7,17.4-3,26.3c0.3,3.6,0.9,7.1,1.5,10.6
	c0.1,0.7,1.1,1.3,1.6,2c0.7-0.7,1.5-1.2,2.1-2c0.3-0.4,0.2-1.1,0.3-1.7c3.8-16.9,14.6-27,30.7-32c2.6-0.8,5.6-0.7,8.7-1.1
	c0,1.9,0,3,0,4.2C126.1,501.2,126.1,502.3,126.1,504.5z M277.9,427.3c-2.5-0.7-4.6-1.5-6.7-1.8c-1.1-0.2-2.5,0.2-3.3,0.8
	c-3.7,2.5-7.6,2.3-10.2-0.7c-2.5-2.9-2.4-7,0.3-9.7c2.8-2.9,6.3-3,9.9-0.1c3.4,2.7,7.2,3.1,12.5,3c-1.7-4-2.7-7.8-4.7-10.8
	c-7.6-11.1-18.8-15.2-31.7-14.9c-12.2,0.2-22.6,4.5-29.8,14.7c-2.5,3.5-4,7.4-3.9,11.9c4.1,0.2,7.5,0,9.5-3.9
	c0.3-0.7,1.1-1.3,1.7-1.6c2.9-1.4,7-0.2,9,2.5c2,2.8,1.7,6.8-0.7,9.2c-2.4,2.5-6.8,3.3-9.1,0.8c-3.2-3.6-5.7-1.5-8.9,0
	c8.3,13.1,18.2,23.3,34.8,23.5C262.4,450.5,270.7,440.2,277.9,427.3z M88.2,285.1c1.7-0.8,3.5-1.7,5.2-2.5c16-7.6,32.3-14.3,49.6-18
	c13-2.8,26.1-4.3,39-0.1c6.4,2.1,12.1,6,18.2,9.1c6.1,3.1,9.1,1.5,9.2-5.2c0.2-10.1,0.1-20.2,0.2-30.2c-5.4,1.5-7.1,6.3-7.6,12.4
	c-8.2-7.9-9.4-18.1-11.9-28.7c-1.5,11.1-2.6,21,1,31.2c-1.6-0.4-2.8-0.6-4-0.9c-10.8-2.5-21.7-2.7-32.6-0.7
	C129,256.2,108.2,270,88.2,285.1z M403.7,284.6c0.2-0.4,0.4-0.8,0.7-1.2c-10.1-6.3-19.9-12.9-30.3-18.7
	c-17.5-9.8-36.1-15.8-56.5-14.2c-5.2,0.4-10.4,1.5-15.6,2.3c3.4-9.7,2.5-19.4,0.8-29.2c-2.5,9.5-3.8,19.4-12,27.4
	c-0.2-6.7-2.2-11.2-8.8-13c3.1,10,1.6,19.8,1.5,29.5c0,1.4,0.1,2.8,0.4,4.1c0.8,3.4,2.6,4.4,5.9,3.3c2.2-0.8,4.3-1.7,6.2-3
	c14.3-10.2,30.2-11,46.8-8.5c18.5,2.9,35.8,9.6,52.7,17.4C398.1,281.9,400.9,283.3,403.7,284.6z M327.3,342.2
	c8.4-0.1,16.2-3.9,21-10.3c6.3-8.4,3-19.1-7-22.1c-6.4-1.9-12.9-2.4-19.5-1c-9.4,2-14.4,7.7-14.4,16.7c0,8.1,5.4,14.1,14.4,16
	C323.6,341.9,325.5,342,327.3,342.2z M161.8,342.6c3.4-0.9,7-1.4,10.2-2.7c6.5-2.7,9.9-8.7,9.6-15.7c-0.3-6.9-4-11.8-10.7-14.2
	c-7.1-2.6-14.2-2.1-21.4-0.7c-11.1,2.2-15.7,13.9-8.6,22.8C146.2,338.7,153.2,341.9,161.8,342.6z M326.1,136.6
	c18.8-2.6,36.4-1.5,53.5,4.9c-10.2-11.8-24-14.2-38.5-15c3.3-10.9,10.9-18.6,17.2-27.1C340.5,105.4,333.1,120.4,326.1,136.6z
	 M113.1,143.1c17.3-6.4,35-7.8,53.1-5c-3.2-16.1-19.4-34.9-32.3-37.2c7,8.6,14.6,16.3,17.9,27.2
	C136.9,128.7,123.2,131.4,113.1,143.1z M343.7,98.8c-0.3,0.1-0.7,0.2-1,0.4c-8.8,6-17.8,11.8-26.4,18.2c-3.4,2.5-6.1,5.9-8.6,9.3
	c-2.2,3-1.7,5.3,0.8,6.8c3.2,2.1,8.6,2.2,10.1,0.2C326.9,122.1,335.3,110.5,343.7,98.8z M147.7,98.5c7.9,11,15.6,21.7,23.4,32.5
	c3.4,4.8,4.5,5.2,10,3.5c4-1.3,5.2-3.7,3.2-7.4c-1.3-2.3-3-4.4-4.9-6.2C170,111.9,159,105.2,147.7,98.5z M68.4,185.4
	c16.6-9.6,32.5-18.7,48.3-27.9c-6.7-4.3-26.2-2.5-33,3.6c2.3,0,4-0.1,5.6,0c1.7,0.1,3.4,0.4,6.1,0.6
	C84.4,168.1,75.4,175.1,68.4,185.4z M312.6,300.4c0.1,0.5,0.2,0.9,0.3,1.4c0.9-0.1,1.8-0.2,2.7-0.4c6.4-1.7,12.8-1.7,19.2-0.2
	c10.4,2.4,18.3,8,21.2,18.6c2.5,8.8,0.4,16.5-7.7,22c2.1-0.3,4-0.6,5.8-1.3c10.3-3.6,13.6-11.6,8.9-21.4
	c-6.7-14.1-24.8-23.8-40.2-21.4C319.4,298.2,316,299.5,312.6,300.4z M140.8,341.7c-7.3-5.7-9.5-10.6-8.4-19c0.8-6.5,4-11.8,9.2-15.7
	c9.4-7,20.1-8.1,31.3-5.8c1,0.2,2,0.5,3,0.7c0.1-0.3,0.3-0.7,0.4-1c-0.9-0.4-1.8-0.9-2.8-1.3c-18.8-6.9-35.7,2.8-44.5,14.5
	c-10,13.2-5.5,24.6,10.7,27.7C140,341.8,140.3,341.7,140.8,341.7z M305.9,248.5c2,0,3.5-0.1,5,0c2.4,0.2,3.4-1,3.6-3.2
	c0.6-7.4-0.5-14.5-4.7-20.7c-0.9-1.3-2.2-2.3-3.4-3.4c-0.3,0.2-0.5,0.3-0.8,0.5C309,230.5,308.5,239.3,305.9,248.5z M187.5,221.7
	c-0.4-0.2-0.7-0.3-1.1-0.5c-1.3,1.6-3.3,2.9-3.9,4.7c-1.7,5-3.3,10-3.9,15.2c-0.8,7.1,0.5,8,7.6,7.2c0.1,0,0.2-0.1,0.6-0.5
	C184.5,239.3,183.9,230.5,187.5,221.7z"/>
<path d="M345.7,566.4c-9.9-18.6-20.6-35.7-38.5-47c1.6,4.7,3.6,9.1,4.5,13.7c0.9,4.5,0.7,9.3,0.4,14.1c-7.3-11.6-13-23.9-23.6-32.8
	c-2-1.7-4.3-3.2-6.5-4.6c-1.3-0.9-2.8-1.5-5.2-2.7c3.1,7.4,1.2,13.7-0.5,20.6c-5-8.6-9.1-17.3-19.5-20.2c0,5.4,0,10.5,0,16.7
	c-4.6-5.1-8.5-9.5-12.7-14.3c-3.4,6.1-7.1,10.6-13.9,12.6c0-5,0-9.6,0-14.7c-10.7,1.3-13.1,10.6-18.4,16.9
	c-2.3-3.4-2.3-3.4,0.6-17.5c-9,3.8-16,9.6-21.7,16.9c-5.6,7.2-10.3,15.1-16,23.5c0.5-5.1,0.5-9.8,1.5-14.3c1-4.4,3-8.6,4.1-13.4
	c-2.9,2.1-6,4-8.7,6.4c-8.5,7.3-14.5,16.7-20.8,25.8c-3.4,4.9-6.8,9.9-10.4,15.1c-3.5-3.9-3.9-8.2-3.5-12.6
	c1-13.2,7.6-23.8,16.2-33.3c11.2-12.3,25-20.7,40.4-26.5c5.4-2,9.9-4.9,13.1-9.7c0.8-1.2,1.9-2.3,2.9-3.5c2.6-3,5.4-4.6,9.9-3.8
	c17.1,3,34.2,2.4,51.3-0.3c1-0.2,2.4,0,3.2,0.6c21.3,14.2,42.5,28.7,60.1,47.6c5.4,5.8,10.1,12.1,12.9,19.5
	C349.7,552.2,349.7,559.1,345.7,566.4z"/>
<path d="M100.1,717.8c16.9-1.1,32.3-5,44-17.9c0.6-0.7,1.3-1.4,1.8-2.1c5.9-7.4,5.6-13-1.6-19.2c-5.8-4.9-12-9.4-18.1-14
	c-3.5-2.7-7.2-5.1-10.5-7.9c-7.6-6.4-8.7-15.5-2.4-23.2c3.3-4,7.5-7.5,11.9-10.4c10.4-7,21.1-13.3,33.8-15.3
	c3.1-0.5,6.8-1.8,8.8,1.8c2,3.5,0.4,6.9-1.9,9.6c-2.9,3.3-6,6.4-9.3,9.2c-2.4,2-3.9,1.3-3.9-1.7c0-3-1.2-3.7-3.8-2.9
	c-8.7,2.6-16.8,6.4-23.9,12.2c-3.1,2.6-3.3,4.5-0.3,7.1c5.2,4.4,10.6,8.5,16,12.6c6.6,5,13.6,9.6,19.8,15.1
	c6.9,6.2,7.5,10.6,3.9,19.2c-4.7,10.9-12.6,19.2-21.6,26.6c-11.1,9-23.3,15.8-37.7,18c-3.8,0.6-7.9,0.7-11.7,0.1
	c-14.7-2.3-19.1-12.6-17.5-25.4c0.4-2.8,1.3-5.6,2.5-8.2c3.8-8.4,9.4-15.6,16-22c2.4-2.3,5.4-4.3,8.7-2.6c3.4,1.7,3.6,5.4,3.3,8.9
	c-0.3,4.5-2.7,7.8-6.2,10.3c-2.2,1.6-4.7,2.9-6.9,4.6c-1.6,1.2-3.1,2.5-4.3,4c-4.5,6.1-2.5,11.4,4.9,12.9
	C96.1,717.6,98.3,717.6,100.1,717.8z"/>
<path d="M239.7,687.9c-4.5,3.9-8.9,7.9-13.5,11.7c-8.6,7-17.1,14-25.8,20.8c-6.4,5-13.7,8.5-21.8,9.9c-3,0.5-6.2,0.6-8-2.6
	c-1.7-3.1-0.6-6.3,1.7-8.6c2.3-2.4,4.9-4.7,7.8-6.2c8.4-4.6,17-8.8,25.6-13.1c4.1-2.1,7.9-4.6,9.3-9.2c0.6-2.1,1.1-5.2,0-6.7
	c-0.8-1.2-4.3-1.6-6.2-1c-12.6,3.3-22.9,9.8-30.9,20.7c-13.4,18.2-21.8,38.7-29.2,59.8c-1.8,5-3.8,9.9-6.1,14.7
	c-0.8,1.7-2.9,2.7-4.4,4c-1.4-1.6-3.2-2.9-4-4.7c-2.2-5-1.4-10,0.9-14.7c16.9-34.7,32.9-69.9,54.6-102.1c4.3-6.4,7.6-13.4,11.5-20.1
	c0.8-1.4,2.6-3.4,3.4-3.2c1.6,0.4,3.4,1.9,4.3,3.4c3.7,6.9,2.1,13.9-4.3,19.1c-3.6,2.9-6.7,6.2-8.3,10.4c4.5-0.2,9-0.9,13.4-0.5
	c9.7,1,14.2,6.8,13.2,16.6c-0.1,1-0.2,2-0.3,2.8c4.6-0.9,9-2,13.5-2.7c1.2-0.2,3.5-1,3.5,1.8L239.7,687.9z"/>
<path d="M239.6,688c2.6-3.7,5.2-7.5,7.7-11.2c2.1-3,3.9-6.3,6.3-9.1c1-1.2,3.3-2.2,4.7-1.9c1.1,0.2,2.3,2.4,2.7,3.9
	c1.3,5.2,0.8,9.9-3.4,14c-8.9,8.8-13.8,20.3-19.4,31.3c-0.2,0.5-0.2,1-0.5,2.4c3.1-1.4,5.6-2.5,7.9-3.7c3.1-1.6,6.1-3.4,9.2-4.8
	c1-0.4,2.6-0.4,3.5,0.1c0.6,0.4,0.6,2.2,0.2,3.2c-0.9,2.2-1.8,4.7-3.4,6.3c-5,4.9-10.1,9.7-15.6,14.1c-4.2,3.3-7.7,2.1-9.9-2.8
	c-2.4-5.2-3-10.8-0.9-16.2c3.1-7.7,6.6-15.2,10-22.8c0.4-1,0.8-2.1,1.2-3.1C239.7,687.9,239.6,688,239.6,688z"/>
<path d="M279,650.9c-1.1,1.6-2.1,3.9-3.9,5.5c-1.9,1.7-4.4,3-6.8,4.1c-3.2,1.5-5.4,0.5-5.6-3.1c-0.1-2.7,0.3-5.9,1.7-8.2
	c1.7-2.7,4.5-4.9,7.1-6.9c2.6-2,4.5-1.4,5.6,1.7C277.9,645.9,278.2,648,279,650.9z"/>
<path d="M343.3,315.2c3.6,4,3.8,9.8,0.9,13.9c-5.1,7.1-17.8,9.9-25.4,5.6c-5.1-2.9-7.4-7.8-6.5-14.1c0.9-6,3.3-8.6,9.8-10
	c2.6-0.5,5.2-0.7,8.8-1.1c-4.2,4.3-5.8,8.4-2.4,13c2,2.7,5.7,3.8,9,2.7C341.2,324,342.9,321.1,343.3,315.2z"/>
<path d="M145.9,314.7c0,6.2,1.9,9.5,5.8,10.6c3.6,1,7.4-0.4,9.4-3.5c2.2-3.4,1.5-7.2-2.2-11.5c6.1-1.5,14.1,1.2,16.4,5.7
	c2.9,5.4,1.8,13-2.6,16.9c-4.8,4.2-10.6,4.7-16.3,3.2c-3.5-0.9-7.1-2.8-9.9-5.2C141.6,326.7,141.5,320.2,145.9,314.7z"/>
</svg>
