<svg width="39" height="27" viewBox="0 0 39 27" fill="none" xmlns="http://www.w3.org/2000/svg">
<path d="M1.90171 0.978516H36.8746C37.3253 0.987705 37.754 1.17531 38.0663 1.50049C38.3785 1.82567 38.5488 2.26168 38.5397 2.7124V24.3867C38.5488 24.8374 38.3785 25.273 38.0663 25.5981C37.754 25.9233 37.3253 26.1114 36.8746 26.1206H1.90171C1.45099 26.1114 1.0223 25.9233 0.710064 25.5981C0.397825 25.273 0.227566 24.8374 0.236676 24.3867V2.7124C0.227566 2.26168 0.397825 1.82567 0.710064 1.50049C1.0223 1.17531 1.45099 0.987705 1.90171 0.978516Z" fill="#5870BE"/>
<path d="M16.9922 13.5453C16.9926 11.7695 17.5195 10.0338 18.5063 8.55748C19.4932 7.08118 20.8956 5.93065 22.5363 5.25133C24.1769 4.57201 25.9822 4.39448 27.7238 4.74108C29.4654 5.08768 31.0651 5.94288 32.3207 7.1986C33.5763 8.45431 34.4313 10.0541 34.7777 11.7958C35.1241 13.5374 34.9462 15.3427 34.2667 16.9833C33.5872 18.6239 32.4366 20.0259 30.9602 21.0126C29.4838 21.9992 27.7479 22.526 25.9722 22.5262C24.7928 22.5262 23.625 22.294 22.5354 21.8426C21.4458 21.3913 20.4558 20.7298 19.6219 19.8959C18.7881 19.0619 18.1266 18.0719 17.6754 16.9823C17.2242 15.8927 16.9921 14.7246 16.9922 13.5453Z" fill="#FFAF38"/>
<path d="M12.2124 22.5244C10.6813 22.5242 9.1757 22.1326 7.83859 21.3867C6.50149 20.6408 5.37731 19.5654 4.57285 18.2626C3.76838 16.9599 3.31035 15.4734 3.24228 13.9438C3.17421 12.4142 3.49837 10.8924 4.18393 9.52339C4.86949 8.15437 5.89372 6.98375 7.15927 6.12202C8.42483 5.26029 9.88963 4.73623 11.4146 4.60005C12.9397 4.46387 14.4742 4.71985 15.8724 5.3437C17.2706 5.96756 18.4861 6.93862 19.4034 8.1645H18.2035V8.7646H19.8164C19.9374 8.9556 20.0514 9.15347 20.1574 9.35347H17.6034V9.95357H20.4464C20.5344 10.1536 20.6134 10.3537 20.6834 10.5537H17.0034V11.1533H20.8714C21.3576 12.9273 21.2906 14.8075 20.6794 16.5424H17.0034V17.1425H20.4424C20.3524 17.3495 20.2554 17.5424 20.1574 17.7334H17.6034V18.3334H19.8094C19.6764 18.5434 19.5375 18.7445 19.3965 18.9335H18.2035V19.5336H18.9034C18.0606 20.474 17.0293 21.2263 15.8764 21.7417C14.7236 22.257 13.4751 22.5235 12.2124 22.5244Z" fill="#E63737"/>
<path d="M2.36155 15.1973L2.90825 10.9373L3.75676 11.0462L4.378 14.1919C4.43494 14.4848 4.47576 14.7036 4.50048 14.8486C4.5688 14.6998 4.67357 14.4819 4.81478 14.1948L6.21511 11.3617L6.97354 11.4591L6.42684 15.719L5.88344 15.6493L6.34102 12.0838L4.64555 15.4904L4.13702 15.4252L3.37034 11.6406L2.90494 15.2671L2.36155 15.1973ZM9.33215 15.705C9.11729 15.8448 8.91543 15.937 8.72657 15.9817C8.53964 16.0266 8.3435 16.0359 8.13816 16.0096C7.79914 15.966 7.54915 15.8503 7.38818 15.6622C7.22746 15.4723 7.16363 15.2485 7.1967 14.9908C7.21609 14.8397 7.26764 14.7065 7.35136 14.5912C7.43726 14.4743 7.54027 14.3851 7.66038 14.3237C7.78244 14.2626 7.91569 14.2216 8.06015 14.2007C8.1663 14.1868 8.32464 14.1805 8.53515 14.1819C8.96394 14.1858 9.28257 14.1656 9.49105 14.1215C9.50219 14.0501 9.509 14.0047 9.51149 13.9853C9.53884 13.7722 9.5087 13.6157 9.42109 13.5159C9.30259 13.3805 9.1116 13.296 8.84814 13.2621C8.60211 13.2306 8.41442 13.2508 8.28506 13.3228C8.15788 13.3931 8.05216 13.5341 7.96789 13.7458L7.46541 13.6105C7.53999 13.3975 7.63914 13.231 7.76284 13.1111C7.88679 12.9891 8.0541 12.9052 8.26477 12.8594C8.47569 12.8117 8.71385 12.8048 8.97926 12.8389C9.24272 12.8727 9.45281 12.9311 9.60952 13.0143C9.76623 13.0974 9.87724 13.1914 9.94254 13.2963C10.0081 13.3992 10.0472 13.5243 10.0598 13.6717C10.0658 13.763 10.0539 13.9249 10.024 14.1574L9.93452 14.8548C9.87212 15.341 9.84325 15.6504 9.8479 15.783C9.85474 15.9138 9.88351 16.0425 9.93421 16.1692L9.38791 16.099C9.34759 15.9836 9.329 15.8522 9.33215 15.705ZM9.43847 14.5312C9.23868 14.5843 8.94545 14.6137 8.55879 14.6192C8.33978 14.6226 8.18323 14.6379 8.08915 14.6652C7.99506 14.6925 7.91896 14.7409 7.86083 14.8102C7.80295 14.8776 7.76817 14.9568 7.75649 15.0479C7.73859 15.1874 7.77597 15.3103 7.86865 15.4167C7.96327 15.5234 8.11228 15.5898 8.31569 15.6159C8.51716 15.6417 8.70195 15.6211 8.87005 15.5541C9.03841 15.4851 9.16921 15.3788 9.26247 15.2352C9.33381 15.1243 9.38428 14.9535 9.41386 14.723L9.43847 14.5312ZM10.4912 15.3043L11.0189 15.2893C11.0213 15.5003 11.0814 15.6695 11.1989 15.7968C11.3184 15.9244 11.4973 16.0035 11.7356 16.0341C11.9758 16.0649 12.1602 16.0393 12.2889 15.9574C12.4178 15.8735 12.4907 15.7657 12.5076 15.634C12.5228 15.5158 12.4834 15.4162 12.3894 15.3352C12.3237 15.2796 12.1531 15.1976 11.8775 15.0894C11.5064 14.9433 11.2507 14.8258 11.1105 14.7369C10.9724 14.6463 10.8726 14.5341 10.811 14.4002C10.7517 14.2646 10.7317 14.1212 10.751 13.9701C10.7687 13.8325 10.816 13.7096 10.8929 13.6014C10.972 13.4914 11.0707 13.4046 11.1892 13.3411C11.2782 13.2914 11.3951 13.2552 11.5398 13.2325C11.6867 13.208 11.8406 13.2061 12.0013 13.2267C12.2435 13.2578 12.4512 13.3199 12.6243 13.413C12.7994 13.5063 12.9228 13.6187 12.9946 13.75C13.0666 13.8793 13.1063 14.0459 13.1136 14.2497L12.5932 14.2538C12.5903 14.0919 12.5384 13.9592 12.4375 13.8557C12.3385 13.7524 12.1873 13.6877 11.9839 13.6616C11.7437 13.6308 11.5672 13.6485 11.4543 13.7148C11.3414 13.781 11.2782 13.8674 11.2645 13.974C11.2558 14.0418 11.2693 14.1055 11.3049 14.1652C11.3403 14.2269 11.4012 14.2819 11.4875 14.3304C11.5374 14.3565 11.6856 14.4208 11.9324 14.5234C12.2897 14.6697 12.537 14.7841 12.674 14.8667C12.8133 14.9476 12.9169 15.0534 12.9848 15.1842C13.0527 15.315 13.0752 15.4695 13.0523 15.6478C13.0299 15.8221 12.9575 15.9802 12.8349 16.122C12.7145 16.2621 12.553 16.3625 12.3502 16.4231C12.1478 16.4818 11.9255 16.4956 11.6833 16.4645C11.2823 16.4131 10.9869 16.2905 10.7971 16.0968C10.6093 15.9033 10.5073 15.6392 10.4912 15.3043ZM14.7599 16.3129L14.7761 16.7846C14.6249 16.7967 14.4912 16.7953 14.3749 16.7804C14.1851 16.756 14.0417 16.7071 13.9448 16.6336C13.8479 16.5602 13.7844 16.4723 13.7542 16.3699C13.7242 16.2657 13.7294 16.0566 13.7697 15.7428L13.9975 13.9673L13.614 13.9181L13.6662 13.5112L14.0497 13.5605L14.1478 12.7962L14.7082 12.5492L14.5699 13.6272L15.0959 13.6947L15.0436 14.1015L14.5177 14.034L14.2861 15.8386C14.267 15.9878 14.2634 16.0848 14.2753 16.1296C14.2892 16.1747 14.3149 16.2125 14.3524 16.2429C14.3918 16.2735 14.4502 16.2938 14.5277 16.3038C14.5858 16.3112 14.6632 16.3143 14.7599 16.3129ZM17.4542 16.1241L17.9862 16.2603C17.8604 16.5651 17.6711 16.7899 17.4182 16.9347C17.1652 17.0794 16.8596 17.1288 16.5012 17.0828C16.0498 17.0249 15.7092 16.8404 15.4794 16.5293C15.2517 16.2165 15.1701 15.8093 15.2345 15.3075C15.3011 14.7883 15.4865 14.4025 15.7906 14.1501C16.0947 13.8977 16.4599 13.7989 16.8861 13.8536C17.2987 13.9065 17.6178 14.0902 17.8433 14.4047C18.0687 14.7192 18.1488 15.1311 18.0834 15.6406C18.0794 15.6716 18.0725 15.718 18.0626 15.7797L15.7612 15.4844C15.737 15.8259 15.7996 16.0978 15.9489 16.3001C16.0982 16.5024 16.3017 16.6201 16.5593 16.6531C16.7511 16.6777 16.9213 16.6484 17.0698 16.565C17.2183 16.4817 17.3465 16.3347 17.4542 16.1241ZM15.8454 15.0581L17.5686 15.2792C17.5786 15.0166 17.5378 14.8135 17.4459 14.6698C17.3052 14.4469 17.1021 14.3185 16.8367 14.2844C16.5965 14.2536 16.3837 14.308 16.1984 14.4476C16.0151 14.5875 15.8974 14.791 15.8454 15.0581ZM18.521 17.2711L18.9171 14.1851L19.3878 14.2455L19.3278 14.7134C19.476 14.5099 19.6049 14.3797 19.7146 14.3229C19.8262 14.2663 19.9431 14.2459 20.0651 14.2616C20.2414 14.2842 20.4134 14.3634 20.5811 14.4991L20.3386 14.9612C20.2204 14.8693 20.0974 14.8151 19.9696 14.7987C19.8553 14.784 19.7481 14.8057 19.6481 14.8638C19.5484 14.9199 19.4713 15.0065 19.4169 15.1236C19.3349 15.3021 19.2798 15.5018 19.2514 15.7226L19.0441 17.3383L18.521 17.2711ZM23.8067 16.4312L24.3521 16.646C24.1745 17.0938 23.9161 17.42 23.5767 17.6246C23.2396 17.8275 22.8492 17.9004 22.4055 17.8435C21.9464 17.7846 21.5845 17.6436 21.3197 17.4206C21.0571 17.1959 20.873 16.8966 20.7674 16.5227C20.6637 16.149 20.638 15.7588 20.6902 15.3519C20.7471 14.9083 20.881 14.5327 21.0918 14.225C21.3048 13.9156 21.5782 13.6956 21.9119 13.5652C22.2479 13.4331 22.6038 13.3911 22.9796 13.4393C23.4058 13.494 23.7503 13.6485 24.013 13.9028C24.2757 14.157 24.439 14.4881 24.5029 14.8961L23.9311 14.9556C23.872 14.633 23.7576 14.3889 23.5879 14.2233C23.4181 14.0578 23.1908 13.9568 22.9061 13.9202C22.5787 13.8782 22.2945 13.9215 22.0535 14.05C21.8145 14.1789 21.6334 14.3703 21.5102 14.6242C21.3873 14.8763 21.3078 15.1427 21.2717 15.4236C21.2252 15.7859 21.2369 16.1093 21.3067 16.394C21.3787 16.6769 21.5175 16.8995 21.7231 17.0618C21.9287 17.2241 22.1614 17.3218 22.4209 17.3552C22.7367 17.3957 23.0157 17.3389 23.258 17.1849C23.5003 17.0309 23.6832 16.7797 23.8067 16.4312ZM26.8719 17.9559C26.657 18.0957 26.4552 18.1879 26.2663 18.2326C26.0794 18.2776 25.8833 18.2868 25.6779 18.2605C25.3389 18.217 25.0889 18.1012 24.9279 17.9132C24.7672 17.7232 24.7034 17.4994 24.7364 17.2417C24.7558 17.0906 24.8074 16.9574 24.8911 16.8422C24.977 16.7252 25.08 16.636 25.2001 16.5746C25.3222 16.5135 25.4554 16.4725 25.5999 16.4517C25.7061 16.4377 25.8644 16.4315 26.0749 16.4329C26.5037 16.4367 26.8223 16.4166 27.0308 16.3724C27.0419 16.301 27.0487 16.2556 27.0512 16.2362C27.0786 16.0231 27.0485 15.8666 26.9608 15.7668C26.8423 15.6315 26.6514 15.5469 26.3879 15.5131C26.1419 15.4815 25.9542 15.5017 25.8248 15.5737C25.6976 15.6441 25.5919 15.7851 25.5076 15.9968L25.0052 15.8614C25.0797 15.6485 25.1789 15.482 25.3026 15.362C25.4265 15.2401 25.5939 15.1562 25.8045 15.1104C26.0154 15.0626 26.2536 15.0557 26.519 15.0898C26.7825 15.1236 26.9926 15.1821 27.1493 15.2652C27.306 15.3483 27.417 15.4423 27.4823 15.5472C27.5478 15.6501 27.5869 15.7753 27.5995 15.9226C27.6055 16.0139 27.5936 16.1759 27.5638 16.4083L27.4743 17.1057C27.4119 17.592 27.383 17.9014 27.3876 18.0339C27.3945 18.1647 27.4233 18.2935 27.474 18.4201L26.9277 18.35C26.8873 18.2345 26.8687 18.1032 26.8719 17.9559ZM26.9782 16.7821C26.7784 16.8353 26.4852 16.8646 26.0985 16.8701C25.8795 16.8735 25.723 16.8889 25.6289 16.9162C25.5348 16.9435 25.4587 16.9918 25.4006 17.0611C25.3427 17.1285 25.3079 17.2078 25.2962 17.2988C25.2783 17.4383 25.3157 17.5612 25.4084 17.6677C25.503 17.7743 25.652 17.8407 25.8554 17.8668C26.0569 17.8927 26.2417 17.8721 26.4098 17.805C26.5782 17.7361 26.709 17.6298 26.8022 17.4862C26.8736 17.3752 26.924 17.2045 26.9536 16.9739L26.9782 16.7821ZM28.1161 18.5025L28.5122 15.4165L28.9829 15.4769L28.9229 15.9447C29.0711 15.7413 29.2 15.6111 29.3097 15.5543C29.4214 15.4977 29.5382 15.4773 29.6602 15.4929C29.8365 15.5156 30.0085 15.5947 30.1762 15.7305L29.9337 16.1926C29.8156 16.1007 29.6926 16.0465 29.5647 16.0301C29.4504 16.0154 29.3433 16.0371 29.2433 16.0951C29.1435 16.1513 29.0664 16.2379 29.012 16.3549C28.9301 16.5335 28.8749 16.7331 28.8465 16.954L28.6392 18.5696L28.1161 18.5025ZM32.1059 19.0145L32.1559 18.6251C31.9209 18.9061 31.6136 19.0222 31.2339 18.9735C30.9879 18.9419 30.7699 18.845 30.58 18.6828C30.3921 18.5209 30.2565 18.3115 30.1733 18.0547C30.0923 17.7962 30.072 17.509 30.1125 17.1932C30.1521 16.8852 30.2392 16.6128 30.3739 16.3761C30.5089 16.1375 30.6877 15.9645 30.9102 15.8572C31.1327 15.7498 31.3708 15.7125 31.6246 15.745C31.8106 15.7689 31.9711 15.8299 32.1062 15.9279C32.2416 16.0241 32.3467 16.1409 32.4216 16.2785L32.6177 14.7501L33.1379 14.8168L32.5912 19.0768L32.1059 19.0145ZM30.6501 17.2622C30.5994 17.6574 30.6448 17.9635 30.7863 18.1806C30.9278 18.3976 31.1118 18.5207 31.3385 18.5498C31.5671 18.5791 31.7727 18.511 31.9555 18.3454C32.1404 18.1781 32.2574 17.9027 32.3067 17.5191C32.3609 17.0968 32.3193 16.7764 32.1819 16.5579C32.0445 16.3395 31.8567 16.2149 31.6184 16.1843C31.386 16.1545 31.1791 16.2244 30.9978 16.3942C30.8185 16.5641 30.7026 16.8535 30.6501 17.2622Z" fill="white"/>
</svg>
