<svg width="31" height="27" viewBox="0 0 31 27" fill="none" xmlns="http://www.w3.org/2000/svg">
<path d="M31 0.963185L26.0981 25.8809C26.0981 25.8809 25.3773 27.6295 23.503 26.7552L12.1855 18.0121L8.07656 16.045L1.15628 13.7135C1.15628 13.7135 0.0749824 13.3492 0.00289608 12.4749C-0.0691902 11.6734 1.22837 11.1634 1.22837 11.1634L28.7653 0.30746C28.7653 0.30746 31 -0.712567 31 0.963185Z" fill="#556B2F"/>
<path d="M11.3297 26C11.3297 26 10.9597 26 10.5898 24.6527C10.1458 23.3053 8 16.1945 8 16.1945L25.0185 5.26614C25.0185 5.26614 25.9804 4.66733 25.9804 5.26614C25.9804 5.26614 26.1284 5.34099 25.6105 5.86495C25.0925 6.38891 12.2176 18.0657 12.2176 18.0657" fill="#82A24B"/>
<path d="M16 21.6187L11.6944 25.8405C11.6944 25.8405 11.3472 26.1421 11 25.9159L11.8333 18" fill="#556B2F"/>
</svg>
