<!-- Generated by IcoMoon.io -->
<svg version="1.1" xmlns="http://www.w3.org/2000/svg" width="931" height="1024" viewBox="0 0 931 1024">
<title></title>
<g id="icomoon-ignore">
</g>
<path d="M216.103 918.432c0-30.161 0-58.815 0-88.976 0-10.557-3.034-15.081-12.138-18.097-101.65-31.67-162.337-101.044-185.095-202.085-27.309-125.173-24.275-251.854 4.552-377.026 24.275-102.551 89.513-167.399 191.163-199.069 77.376-24.13 156.27-33.178 235.161-33.178 86.478 0 172.957 4.524 256.403 30.162 68.273 21.113 130.476 48.259 168.405 114.616 28.827 51.275 42.48 107.075 50.067 164.383 10.619 91.993 7.584 183.989-7.587 274.473-19.723 125.173-89.513 199.072-212.402 229.233-98.617 24.129-197.235 33.178-297.366 28.653-7.587 0-16.688 6.032-22.758 10.557-43.998 49.766-87.996 101.041-131.994 152.318-1.517 1.508-1.517 1.508-3.034 3.016-9.103 6.032-18.206 10.557-27.309 16.589-1.517-10.557-6.069-19.605-6.069-30.161-1.517-24.129-1.517-49.766 0-75.407-1.517 0-1.517 0 0 0zM633.325 734.444c10.619-1.508 18.205-3.016 24.275-6.032 37.928-16.589 63.721-46.75 78.891-82.944 7.587-16.589 1.517-33.178-12.136-43.734-30.345-22.624-59.172-45.245-91.030-66.358-37.928-24.129-56.137-19.605-83.444 15.081-21.243 27.145-30.345 28.653-62.206 16.589-83.444-30.161-135.028-91.992-165.37-173.431-6.070-16.589 0-30.161 12.136-40.718 6.070-4.524 12.139-9.048 18.205-15.081 22.758-18.097 28.827-40.719 13.656-66.356-22.758-34.686-48.55-67.865-74.342-102.551-12.138-15.081-28.826-18.097-47.032-10.557-31.861 15.081-57.652 36.195-75.859 66.357-10.62 18.097-12.138 37.702-4.552 58.816 77.376 206.61 218.472 352.896 424.808 434.332 15.171 7.54 30.341 12.065 43.998 16.589zM759.249 414.726c-6.066-90.484-37.928-168.906-112.271-227.722-54.616-42.227-116.823-63.34-185.093-61.832-6.070 0-12.139 9.049-18.209 13.573 6.070 4.524 10.622 12.065 16.691 15.081 9.101 3.016 21.24 3.016 31.859 3.016 109.236 9.048 201.784 87.469 226.059 191.528 6.070 27.145 7.587 57.307 12.139 85.963 1.514 6.032 9.101 10.557 15.171 16.589 4.552-6.032 10.619-10.557 13.653-16.589 1.517-6.032 0-13.573 0-19.608zM681.875 390.597c-1.517-99.534-74.342-174.939-179.026-188.512-12.139-1.508-30.345-9.048-33.379 10.557s16.688 16.589 27.31 18.097c50.067 6.032 92.548 25.638 122.889 66.356 22.758 30.162 31.862 64.848 31.862 102.55 0 10.557 3.035 21.113 16.688 18.097 6.070-1.508 9.104-12.065 13.656-19.605 1.517-1.508 0-4.524 0-7.54zM607.533 381.549c-1.517-63.339-42.48-102.55-97.1-104.058-6.066 0-12.136 7.54-19.723 12.065 4.552 6.032 9.104 15.081 15.174 16.589 53.099 12.065 60.686 19.606 71.305 70.88 1.517 7.54 10.622 12.065 15.174 18.097 7.584-4.524 12.136-10.557 15.171-13.573z"></path>
</svg>
