<?xml version="1.0" encoding="UTF-8"?>
<svg xmlns="http://www.w3.org/2000/svg" xmlns:xlink="http://www.w3.org/1999/xlink" width="32pt" height="35pt" viewBox="0 0 32 35" version="1.1">
<g id="surface1">
<path style=" stroke:none;fill-rule:nonzero;fill:rgb(0%,0%,0%);fill-opacity:1;" d="M 7.429688 31.390625 C 7.429688 30.359375 7.429688 29.382812 7.429688 28.351562 C 7.429688 27.988281 7.324219 27.835938 7.011719 27.730469 C 3.515625 26.648438 1.429688 24.277344 0.648438 20.824219 C -0.289062 16.546875 -0.1875 12.214844 0.804688 7.9375 C 1.640625 4.433594 3.882812 2.214844 7.375 1.132812 C 10.035156 0.308594 12.746094 0 15.457031 0 C 18.429688 0 21.402344 0.15625 24.273438 1.03125 C 26.617188 1.753906 28.757812 2.679688 30.058594 4.949219 C 31.050781 6.699219 31.519531 8.609375 31.78125 10.566406 C 32.144531 13.710938 32.042969 16.855469 31.519531 19.949219 C 30.84375 24.226562 28.441406 26.753906 24.21875 27.785156 C 20.828125 28.609375 17.441406 28.917969 14 28.761719 C 13.738281 28.761719 13.425781 28.96875 13.214844 29.125 C 11.703125 30.824219 10.191406 32.578125 8.679688 34.328125 C 8.628906 34.382812 8.628906 34.382812 8.574219 34.433594 C 8.261719 34.640625 7.949219 34.792969 7.636719 35 C 7.585938 34.640625 7.429688 34.328125 7.429688 33.96875 C 7.375 33.144531 7.375 32.269531 7.429688 31.390625 C 7.375 31.390625 7.375 31.390625 7.429688 31.390625 Z M 21.769531 25.101562 C 22.132812 25.050781 22.394531 25 22.601562 24.898438 C 23.90625 24.328125 24.792969 23.300781 25.3125 22.0625 C 25.574219 21.496094 25.367188 20.929688 24.898438 20.566406 C 23.855469 19.792969 22.863281 19.019531 21.769531 18.300781 C 20.464844 17.472656 19.839844 17.628906 18.898438 18.8125 C 18.171875 19.742188 17.855469 19.792969 16.761719 19.382812 C 13.894531 18.351562 12.121094 16.238281 11.078125 13.453125 C 10.871094 12.886719 11.078125 12.421875 11.496094 12.0625 C 11.703125 11.90625 11.914062 11.753906 12.121094 11.546875 C 12.902344 10.929688 13.113281 10.15625 12.589844 9.277344 C 11.808594 8.09375 10.921875 6.957031 10.035156 5.773438 C 9.617188 5.257812 9.042969 5.15625 8.417969 5.414062 C 7.324219 5.929688 6.4375 6.648438 5.8125 7.679688 C 5.445312 8.300781 5.394531 8.96875 5.65625 9.691406 C 8.3125 16.753906 13.164062 21.753906 20.257812 24.535156 C 20.777344 24.792969 21.300781 24.949219 21.769531 25.101562 Z M 26.097656 14.175781 C 25.886719 11.082031 24.792969 8.402344 22.238281 6.390625 C 20.359375 4.949219 18.222656 4.226562 15.875 4.277344 C 15.667969 4.277344 15.457031 4.585938 15.25 4.742188 C 15.457031 4.898438 15.613281 5.15625 15.824219 5.257812 C 16.136719 5.359375 16.554688 5.359375 16.917969 5.359375 C 20.671875 5.671875 23.855469 8.351562 24.6875 11.90625 C 24.898438 12.835938 24.949219 13.867188 25.105469 14.84375 C 25.15625 15.050781 25.417969 15.207031 25.628906 15.414062 C 25.785156 15.207031 25.992188 15.050781 26.097656 14.84375 C 26.148438 14.640625 26.097656 14.382812 26.097656 14.175781 Z M 23.4375 13.351562 C 23.386719 9.949219 20.882812 7.371094 17.285156 6.90625 C 16.867188 6.855469 16.242188 6.597656 16.136719 7.269531 C 16.03125 7.9375 16.710938 7.835938 17.074219 7.886719 C 18.796875 8.09375 20.257812 8.761719 21.300781 10.15625 C 22.082031 11.183594 22.394531 12.371094 22.394531 13.660156 C 22.394531 14.019531 22.5 14.382812 22.96875 14.277344 C 23.175781 14.226562 23.28125 13.867188 23.4375 13.609375 C 23.488281 13.558594 23.4375 13.453125 23.4375 13.351562 Z M 20.882812 13.042969 C 20.828125 10.875 19.421875 9.535156 17.542969 9.484375 C 17.335938 9.484375 17.128906 9.742188 16.867188 9.898438 C 17.023438 10.101562 17.179688 10.414062 17.386719 10.464844 C 19.214844 10.875 19.472656 11.132812 19.839844 12.886719 C 19.890625 13.144531 20.203125 13.300781 20.359375 13.503906 C 20.621094 13.351562 20.777344 13.144531 20.882812 13.042969 Z M 20.882812 13.042969 "/>
</g>
</svg>
