<svg width="30" height="33" viewBox="0 0 30 33" fill="none" xmlns="http://www.w3.org/2000/svg">
<path d="M6.96426 29.5979C6.96426 28.6259 6.96426 27.7025 6.96426 26.7305C6.96426 26.3903 6.86647 26.2445 6.57311 26.1473C3.29727 25.1267 1.34154 22.891 0.608144 19.6348C-0.271933 15.6009 -0.174146 11.5184 0.754825 7.48454C1.53712 4.17968 3.63952 2.08984 6.91536 1.06922C9.40892 0.291604 11.9514 0 14.4938 0C17.2807 0 20.0676 0.145803 22.7568 0.972018C24.957 1.65243 26.9616 2.52725 28.1839 4.66569C29.1129 6.31812 29.5529 8.11635 29.7974 9.96318C30.1396 12.9278 30.0418 15.8925 29.5529 18.8085C28.9173 22.8424 26.6682 25.2239 22.7079 26.1959C19.5298 26.9735 16.3517 27.2651 13.1248 27.1193C12.8803 27.1193 12.587 27.3137 12.3914 27.4595C10.9735 29.0633 9.5556 30.7157 8.13769 32.3682C8.0888 32.4168 8.0888 32.4168 8.03991 32.4654C7.74655 32.6598 7.45319 32.8056 7.15983 33C7.11094 32.6598 6.96426 32.3682 6.96426 32.028C6.91537 31.2504 6.91537 30.4242 6.96426 29.5979C6.91537 29.5979 6.91537 29.5979 6.96426 29.5979ZM20.4099 23.6686C20.7521 23.62 20.9966 23.5714 21.1922 23.4742C22.4145 22.9396 23.2457 21.9676 23.7346 20.8012C23.9791 20.2666 23.7835 19.732 23.3435 19.3918C22.3656 18.6627 21.4366 17.9337 20.4099 17.2533C19.1876 16.4757 18.6008 16.6215 17.7208 17.7393C17.0362 18.6141 16.7429 18.6627 15.7161 18.2739C13.027 17.3019 11.3646 15.3093 10.3868 12.6848C10.1912 12.1502 10.3868 11.7128 10.7779 11.3726C10.9735 11.2268 11.1691 11.081 11.3646 10.8866C12.098 10.3034 12.2936 9.57437 11.8047 8.74816C11.0713 7.63034 10.2401 6.56112 9.40892 5.4433C9.01777 4.95729 8.47995 4.86009 7.89323 5.10309C6.86647 5.5891 6.03529 6.26952 5.44857 7.24154C5.10631 7.82475 5.05742 8.45655 5.30189 9.13697C7.79544 15.7953 12.3425 20.5096 18.992 23.134C19.4809 23.377 19.9698 23.5228 20.4099 23.6686ZM24.468 13.3652C24.2725 10.4492 23.2457 7.92195 20.8499 6.02651C19.0898 4.66569 17.0851 3.98527 14.885 4.03387C14.6894 4.03387 14.4938 4.32548 14.2982 4.47128C14.4938 4.61708 14.6405 4.86009 14.8361 4.95729C15.1294 5.05449 15.5206 5.0545 15.8628 5.0545C19.3831 5.3461 22.3656 7.87334 23.1479 11.2268C23.3435 12.1016 23.3924 13.0736 23.5391 13.9971C23.5879 14.1915 23.8324 14.3373 24.028 14.5317C24.1747 14.3373 24.3702 14.1915 24.468 13.9971C24.5169 13.8027 24.468 13.5597 24.468 13.3652ZM21.9745 12.5876C21.9256 9.37997 19.5787 6.94993 16.2051 6.51252C15.8139 6.46392 15.2272 6.22092 15.1294 6.85273C15.0316 7.48454 15.6672 7.38733 16.0095 7.43594C17.623 7.63034 18.992 8.26215 19.9698 9.57437C20.7032 10.5464 20.9966 11.6642 20.9966 12.8792C20.9966 13.2194 21.0944 13.5596 21.5344 13.4624C21.73 13.4138 21.8278 13.0736 21.9745 12.8306C22.0234 12.782 21.9745 12.6848 21.9745 12.5876ZM19.5787 12.296C19.5298 10.2548 18.2097 8.99117 16.4495 8.94257C16.254 8.94257 16.0584 9.18556 15.8139 9.33137C15.9606 9.52577 16.1073 9.81738 16.3029 9.86598C18.0141 10.2548 18.2586 10.4978 18.6008 12.1502C18.6497 12.3932 18.9431 12.539 19.0898 12.7334C19.3342 12.5876 19.4809 12.3932 19.5787 12.296Z" fill="#556B2F"/>
</svg>
