<svg width="39" height="27" viewBox="0 0 39 27" fill="none" xmlns="http://www.w3.org/2000/svg">
<path d="M2.13707 0.978516H37.1371C37.3604 0.982806 37.5807 1.03112 37.7854 1.12061C37.9901 1.21009 38.1751 1.33896 38.3299 1.5C38.4848 1.66104 38.6063 1.85104 38.6876 2.05908C38.769 2.26713 38.8086 2.48906 38.8041 2.7124V24.3867C38.8086 24.6101 38.769 24.832 38.6876 25.04C38.6063 25.2481 38.4848 25.4381 38.3299 25.5991C38.1751 25.7602 37.9901 25.889 37.7854 25.9785C37.5807 26.068 37.3604 26.1163 37.1371 26.1206H2.13707C1.91372 26.1163 1.69343 26.068 1.48875 25.9785C1.28407 25.889 1.09901 25.7602 0.944195 25.5991C0.789378 25.4381 0.667761 25.2481 0.586406 25.04C0.505052 24.832 0.465564 24.6101 0.470073 24.3867V2.7124C0.465564 2.48906 0.505052 2.26713 0.586406 2.05908C0.667761 1.85104 0.789378 1.66104 0.944195 1.5C1.09901 1.33896 1.28407 1.21009 1.48875 1.12061C1.69343 1.03112 1.91372 0.982806 2.13707 0.978516Z" fill="url(#paint0_linear)"/>
<path d="M30.4421 18.2046L30.1902 16.9097H27.4562L27.0072 18.2046H24.7651L27.9722 10.1396C28.0468 9.93966 28.1834 9.76863 28.3621 9.65186C28.5407 9.53508 28.7521 9.47876 28.9652 9.49072H30.6942L32.4161 18.2056L30.4421 18.2046ZM29.2062 11.8604L28.0762 15.1216H29.8422L29.2062 11.8604ZM21.9192 11.9746C21.9192 12.9266 24.9192 13.1303 24.9192 15.3193C24.9192 17.4273 22.7042 18.2026 21.2372 18.2026C20.4034 18.2164 19.5761 18.0542 18.8092 17.7266L19.1292 15.8364C20.0092 16.5564 22.6782 16.7617 22.6782 15.6187C22.6782 14.4757 19.7032 14.4485 19.7032 12.2725C19.7032 9.96046 22.2372 9.48438 23.3032 9.48438C23.9635 9.5013 24.6166 9.62543 25.2372 9.85156L24.9302 11.6606C24.0122 11.1486 21.9172 11.0265 21.9172 11.9785L21.9192 11.9746ZM15.3352 18.2046L16.6792 9.48926H18.8302L17.4862 18.2046H15.3352ZM10.1782 18.2046L8.31213 10.6426C8.64179 10.8485 8.9563 11.0778 9.25317 11.3286C10.1502 12.0962 10.8327 13.0831 11.2341 14.1934L11.4772 15.4844L13.5282 9.49072H15.8431L12.4211 18.2056L10.1782 18.2046ZM6.38416 9.72852L6.28418 9.69873L6.38416 9.72852ZM6.16418 9.66357L6.11621 9.65039L6.16418 9.66357ZM6.69324 9.8335L6.56519 9.78857L6.69324 9.8335ZM8.1842 10.5586C8.11754 10.5173 8.0508 10.4775 7.98413 10.4395C8.04813 10.4835 8.11413 10.5215 8.18213 10.5635L8.1842 10.5586ZM7.67017 10.2686C7.61217 10.2386 7.55224 10.2067 7.49524 10.1787C7.55024 10.2117 7.60921 10.2434 7.66821 10.2734L7.67017 10.2686ZM7.13513 10.0117L7.01721 9.96045L7.13513 10.0117Z" fill="#494CA3"/>
<path d="M11.2307 14.1975L10.5067 10.2795C10.4687 10.0434 10.3419 9.83069 10.1523 9.68481C9.96279 9.53892 9.72471 9.47118 9.48669 9.49486H6.09668L6.05664 9.64184C7.2337 9.95922 8.32452 10.5367 9.24866 11.3318C10.1462 12.0995 10.8292 13.0868 11.2307 14.1975Z" fill="#FFC000"/>
<defs>
<linearGradient id="paint0_linear" x1="19.6371" y1="26.1206" x2="19.6371" y2="0.978516" gradientUnits="userSpaceOnUse">
<stop stop-color="#E59703"/>
<stop offset="0.231" stop-color="#E59703"/>
<stop offset="0.234" stop-color="white"/>
<stop offset="0.761" stop-color="white"/>
<stop offset="0.766" stop-color="#5457BB"/>
<stop offset="1" stop-color="#5457BB"/>
</linearGradient>
</defs>
</svg>
